solid model
facet normal 0 0 -1
outer loop
vertex 4.12677 28.6108 13.50948
vertex 1 29.16213 13.50948
vertex 4.678107 31.73756 13.50948
endloop
endfacet
facet normal 0 0 -1
outer loop
vertex 4.12677 28.6108 13.50948
vertex 4.678107 31.73756 13.50948
vertex 11.48295 33.76166 13.50948
endloop
endfacet
facet normal 0 0 -1
outer loop
vertex 4.12677 28.6108 13.50948
vertex 11.48295 33.76166 13.50948
vertex 18.28781 35.78576 13.50948
endloop
endfacet
facet normal -6.321687e-16 1.247696e-15 -1
outer loop
vertex 4.12677 28.6108 13.50948
vertex 18.28781 35.78576 13.50948
vertex 25.09267 37.80986 13.50948
endloop
endfacet
facet normal 9.715291e-17 5.509838e-16 -1
outer loop
vertex 25.09267 37.80986 13.50948
vertex 44.40455 37.62864 13.50948
vertex 50.65807 36.52598 13.50948
endloop
endfacet
facet normal -3.553255e-16 -8.459047e-15 -1
outer loop
vertex 25.09267 37.80986 13.50948
vertex 50.65807 36.52598 13.50948
vertex 53.78483 35.97465 13.50948
endloop
endfacet
facet normal -3.566472e-15 -3.968388e-15 -1
outer loop
vertex 53.78483 35.97465 13.50948
vertex 59.48702 31.74522 13.50948
vertex 67.4002 24.18587 13.50948
endloop
endfacet
facet normal -4.857589e-14 -5.595167e-14 -1
outer loop
vertex 67.4002 24.18587 13.50948
vertex 67.4002 24.15412 13.50948
vertex 53.78483 35.97465 13.50948
endloop
endfacet
facet normal 0 0 -1
outer loop
vertex 67.4002 24.15412 13.50948
vertex 67.4002 24.02063 13.50948
vertex 53.78483 35.97465 13.50948
endloop
endfacet
facet normal 0 0 -1
outer loop
vertex 67.4002 24.02063 13.50948
vertex 67.4002 21.35231 13.50948
vertex 53.78483 35.97465 13.50948
endloop
endfacet
facet normal 1.022206e-15 2.395549e-15 -1
outer loop
vertex 70.59738 17.91866 13.50948
vertex 70.59738 18.66019 13.50948
vertex 71.74303 16.68828 13.50948
endloop
endfacet
facet normal -2.132273e-15 3.759761e-16 -1
outer loop
vertex 70.59738 14.91557 13.50948
vertex 71.74303 16.68828 13.50948
vertex 70.59738 10.19092 13.50948
endloop
endfacet
facet normal -1.550516e-15 0 -1
outer loop
vertex 70.59738 15.73226 13.50948
vertex 71.74303 16.68828 13.50948
vertex 70.59738 14.91557 13.50948
endloop
endfacet
facet normal 4.239822e-15 2.463282e-15 -1
outer loop
vertex 67.4002 17.45403 13.50948
vertex 67.4002 16.01176 13.50948
vertex 66.46662 17.61865 13.50948
endloop
endfacet
facet normal -1.550516e-15 0 -1
outer loop
vertex 71.74303 16.68828 13.50948
vertex 70.59738 15.73226 13.50948
vertex 70.59738 16.89028 13.50948
endloop
endfacet
facet normal -1.550516e-15 0 -1
outer loop
vertex 70.59738 16.89028 13.50948
vertex 70.59738 17.3919 13.50948
vertex 71.74303 16.68828 13.50948
endloop
endfacet
facet normal 4.239823e-15 2.463286e-15 -1
outer loop
vertex 67.4002 17.45403 13.50948
vertex 66.46662 17.61865 13.50948
vertex 64.37974 21.2106 13.50948
endloop
endfacet
facet normal 1.176217e-15 0 -1
outer loop
vertex 64.37974 21.2106 13.50948
vertex 67.4002 19.35552 13.50948
vertex 67.4002 17.45403 13.50948
endloop
endfacet
facet normal -1.550516e-15 0 -1
outer loop
vertex 70.59738 17.3919 13.50948
vertex 70.59738 17.91866 13.50948
vertex 71.74303 16.68828 13.50948
endloop
endfacet
facet normal 2.367418e-15 1.939528e-15 -1
outer loop
vertex 67.4002 19.35552 13.50948
vertex 64.37974 21.2106 13.50948
vertex 53.78483 35.97465 13.50948
endloop
endfacet
facet normal 0 0 -1
outer loop
vertex 53.78483 35.97465 13.50948
vertex 67.4002 21.35231 13.50948
vertex 67.4002 19.35552 13.50948
endloop
endfacet
facet normal 1.001850e-15 9.595752e-16 -1
outer loop
vertex 53.78483 35.97465 13.50948
vertex 64.37974 21.2106 13.50948
vertex 53.2335 32.84789 13.50948
endloop
endfacet
facet normal 1.943058e-16 1.101967e-15 -1
outer loop
vertex 53.78483 35.97465 13.50948
vertex 53.2335 32.84789 13.50948
vertex 43.85322 34.50188 13.50948
endloop
endfacet
facet normal 2.375599e-16 8.102826e-16 -1
outer loop
vertex 25.09267 37.80986 13.50948
vertex 53.78483 35.97465 13.50948
vertex 43.85322 34.50188 13.50948
endloop
endfacet
facet normal -5.322418e-18 -5.671764e-16 -1
outer loop
vertex 25.09267 37.80986 13.50948
vertex 43.85322 34.50188 13.50948
vertex 24.54132 34.6831 13.50948
endloop
endfacet
facet normal 1.783398e-16 -5.995618e-16 -1
outer loop
vertex 25.09267 37.80986 13.50948
vertex 24.54132 34.6831 13.50948
vertex 17.73648 32.659 13.50948
endloop
endfacet
facet normal 1.783389e-16 -5.995604e-16 -1
outer loop
vertex 25.09267 37.80986 13.50948
vertex 17.73648 32.659 13.50948
vertex 10.93162 30.6349 13.50948
endloop
endfacet
facet normal 1.783388e-16 -5.995604e-16 -1
outer loop
vertex 25.09267 37.80986 13.50948
vertex 10.93162 30.6349 13.50948
vertex 4.12677 28.6108 13.50948
endloop
endfacet
facet normal 7.133536e-16 -2.398236e-15 1
outer loop
vertex 1 29.16213 19.85948
vertex 4.12677 28.6108 19.85948
vertex 10.93162 30.6349 19.85948
endloop
endfacet
facet normal 7.133536e-16 -2.398235e-15 1
outer loop
vertex 1 29.16213 19.85948
vertex 10.93162 30.6349 19.85948
vertex 17.73648 32.659 19.85948
endloop
endfacet
facet normal 7.133482e-16 -2.398210e-15 1
outer loop
vertex 1 29.16213 19.85948
vertex 17.73648 32.659 19.85948
vertex 24.54132 34.6831 19.85948
endloop
endfacet
facet normal -2.916837e-15 0 1
outer loop
vertex 70.52503 15.67189 19.85948
vertex 70.52503 9.780621 19.85948
vertex 71.74303 16.68828 19.85948
endloop
endfacet
facet normal -2.916837e-15 0 1
outer loop
vertex 71.74303 16.68828 19.85948
vertex 70.52503 16.90304 19.85948
vertex 70.52503 15.67189 19.85948
endloop
endfacet
facet normal 0 0 1
outer loop
vertex 67.35004 17.46288 19.85948
vertex 66.46662 17.61865 19.85948
vertex 67.35004 16.0981 19.85948
endloop
endfacet
facet normal 0 0 1
outer loop
vertex 67.35004 17.46288 19.85948
vertex 67.35004 19.38633 19.85948
vertex 64.37974 21.2106 19.85948
endloop
endfacet
facet normal 0 0 1
outer loop
vertex 64.37974 21.2106 19.85948
vertex 66.46662 17.61865 19.85948
vertex 67.35004 17.46288 19.85948
endloop
endfacet
facet normal -2.916837e-15 0 1
outer loop
vertex 70.52503 16.90304 19.85948
vertex 71.74303 16.68828 19.85948
vertex 70.52503 17.43634 19.85948
endloop
endfacet
facet normal 2.516704e-16 0 1
outer loop
vertex 67.35004 19.38633 19.85948
vertex 67.35004 20.52355 19.85948
vertex 53.2335 32.84789 19.85948
endloop
endfacet
facet normal -4.553749e-16 -7.414467e-16 1
outer loop
vertex 53.2335 32.84789 19.85948
vertex 64.37974 21.2106 19.85948
vertex 67.35004 19.38633 19.85948
endloop
endfacet
facet normal -2.916837e-15 0 1
outer loop
vertex 70.52503 17.43634 19.85948
vertex 71.74303 16.68828 19.85948
vertex 70.52503 17.75164 19.85948
endloop
endfacet
facet normal 2.516704e-16 0 1
outer loop
vertex 67.35004 24.00944 19.85948
vertex 53.2335 32.84789 19.85948
vertex 67.35004 20.52355 19.85948
endloop
endfacet
facet normal -2.916837e-15 0 1
outer loop
vertex 70.52503 17.75164 19.85948
vertex 71.74303 16.68828 19.85948
vertex 70.52503 18.78471 19.85948
endloop
endfacet
facet normal 2.516704e-16 0 1
outer loop
vertex 67.35004 24.09479 19.85948
vertex 53.2335 32.84789 19.85948
vertex 67.35004 24.00944 19.85948
endloop
endfacet
facet normal -2.487005e-14 -2.556111e-14 1
outer loop
vertex 67.35004 24.09479 19.85948
vertex 67.35004 24.23378 19.85948
vertex 59.48702 31.74522 19.85948
endloop
endfacet
facet normal 6.938595e-16 7.131397e-16 1
outer loop
vertex 59.48702 31.74522 19.85948
vertex 53.2335 32.84789 19.85948
vertex 67.35004 24.09479 19.85948
endloop
endfacet
facet normal 9.395951e-16 2.106780e-15 1
outer loop
vertex 53.2335 32.84789 19.85948
vertex 59.48702 31.74522 19.85948
vertex 53.78483 35.97465 19.85948
endloop
endfacet
facet normal 2.128939e-17 2.268702e-15 1
outer loop
vertex 43.85322 34.50188 19.85948
vertex 53.2335 32.84789 19.85948
vertex 53.78483 35.97465 19.85948
endloop
endfacet
facet normal 2.128962e-17 2.268700e-15 1
outer loop
vertex 24.54132 34.6831 19.85948
vertex 43.85322 34.50188 19.85948
vertex 53.78483 35.97465 19.85948
endloop
endfacet
facet normal 3.247432e-16 -4.602174e-15 1
outer loop
vertex 24.54132 34.6831 19.85948
vertex 53.78483 35.97465 19.85948
vertex 50.65807 36.52598 19.85948
endloop
endfacet
facet normal 0 0 1
outer loop
vertex 24.54132 34.6831 19.85948
vertex 50.65807 36.52598 19.85948
vertex 44.40455 37.62864 19.85948
endloop
endfacet
facet normal 0 0 1
outer loop
vertex 24.54132 34.6831 19.85948
vertex 44.40455 37.62864 19.85948
vertex 25.09267 37.80986 19.85948
endloop
endfacet
facet normal 1.574240e-16 -2.775875e-17 1
outer loop
vertex 1 29.16213 19.85948
vertex 24.54132 34.6831 19.85948
vertex 25.09267 37.80986 19.85948
endloop
endfacet
facet normal -7.133539e-16 2.398238e-15 1
outer loop
vertex 1 29.16213 19.85948
vertex 25.09267 37.80986 19.85948
vertex 18.28781 35.78576 19.85948
endloop
endfacet
facet normal -7.133538e-16 2.398238e-15 1
outer loop
vertex 1 29.16213 19.85948
vertex 18.28781 35.78576 19.85948
vertex 11.48295 33.76166 19.85948
endloop
endfacet
facet normal -7.133606e-16 2.398254e-15 1
outer loop
vertex 11.48295 33.76166 19.85948
vertex 4.678107 31.73756 19.85948
vertex 1 29.16213 19.85948
endloop
endfacet
facet normal 0.2851042 -0.9584965 0
outer loop
vertex 10.93162 30.6349 13.50948
vertex 10.93162 30.6349 19.85948
vertex 4.12677 28.6108 19.85948
endloop
endfacet
facet normal 0.2851042 -0.9584965 5.362619e-16
outer loop
vertex 4.12677 28.6108 19.85948
vertex 4.12677 28.6108 13.50948
vertex 10.93162 30.6349 13.50948
endloop
endfacet
facet normal 0.2851042 -0.9584965 0
outer loop
vertex 17.73648 32.659 13.50948
vertex 17.73648 32.659 19.85948
vertex 10.93162 30.6349 19.85948
endloop
endfacet
facet normal 0.2851042 -0.9584965 0
outer loop
vertex 10.93162 30.6349 19.85948
vertex 10.93162 30.6349 13.50948
vertex 17.73648 32.659 13.50948
endloop
endfacet
facet normal 0.285105 -0.9584963 1.595112e-16
outer loop
vertex 24.54132 34.6831 13.50948
vertex 24.54132 34.6831 19.85948
vertex 17.73648 32.659 19.85948
endloop
endfacet
facet normal 0.285105 -0.9584963 0
outer loop
vertex 17.73648 32.659 19.85948
vertex 17.73648 32.659 13.50948
vertex 24.54132 34.6831 13.50948
endloop
endfacet
facet normal -0.0093836 -0.999956 1.118916e-15
outer loop
vertex 43.85322 34.50188 13.50948
vertex 43.85322 34.50188 19.85948
vertex 24.54132 34.6831 19.85948
endloop
endfacet
facet normal -0.0093836 -0.999956 -5.249986e-18
outer loop
vertex 24.54132 34.6831 19.85948
vertex 24.54132 34.6831 13.50948
vertex 43.85322 34.50188 13.50948
endloop
endfacet
facet normal -0.1736476 -0.9848078 0
outer loop
vertex 53.2335 32.84789 13.50948
vertex 53.2335 32.84789 19.85948
vertex 43.85322 34.50188 19.85948
endloop
endfacet
facet normal -0.1736476 -0.9848078 1.101965e-15
outer loop
vertex 43.85322 34.50188 19.85948
vertex 43.85322 34.50188 13.50948
vertex 53.2335 32.84789 13.50948
endloop
endfacet
facet normal -0.7221793 -0.6917059 0
outer loop
vertex 64.37974 21.2106 13.50948
vertex 64.37974 21.2106 19.85948
vertex 53.2335 32.84789 19.85948
endloop
endfacet
facet normal -0.7221793 -0.6917059 0
outer loop
vertex 53.2335 32.84789 19.85948
vertex 53.2335 32.84789 13.50948
vertex 64.37974 21.2106 13.50948
endloop
endfacet
facet normal -0.8646602 -0.5023572 0
outer loop
vertex 66.46662 17.61865 13.50948
vertex 66.46662 17.61865 19.85948
vertex 64.37974 21.2106 19.85948
endloop
endfacet
facet normal -0.8646602 -0.5023572 0
outer loop
vertex 64.37974 21.2106 19.85948
vertex 64.37974 21.2106 13.50948
vertex 66.46662 17.61865 13.50948
endloop
endfacet
facet normal -0.8646605 -0.5023566 -7.296014e-15
outer loop
vertex 67.17574 16.3981 18.53556
vertex 67.35004 16.0981 19.85948
vertex 66.46662 17.61865 19.85948
endloop
endfacet
facet normal -0.8646605 -0.5023566 6.044756e-15
outer loop
vertex 67.17574 16.3981 18.53556
vertex 66.46662 17.61865 19.85948
vertex 67.09736 16.53301 17.94024
endloop
endfacet
facet normal -0.8646605 -0.5023566 6.178588e-15
outer loop
vertex 66.95712 16.77439 16.87501
vertex 67.09736 16.53301 17.94024
vertex 66.46662 17.61865 19.85948
endloop
endfacet
facet normal -0.8646605 -0.5023566 0
outer loop
vertex 66.95712 16.77439 16.87501
vertex 66.46662 17.61865 19.85948
vertex 66.46662 17.61865 13.50948
endloop
endfacet
facet normal -0.8646605 -0.5023566 2.046598e-15
outer loop
vertex 66.46662 17.61865 13.50948
vertex 67.4002 16.01176 13.50948
vertex 67.28203 16.21516 14.40708
endloop
endfacet
facet normal -0.8646605 -0.5023566 -4.671929e-15
outer loop
vertex 66.46662 17.61865 13.50948
vertex 67.28203 16.21516 14.40708
vertex 66.95712 16.77439 16.87501
endloop
endfacet
facet normal 0.9848078 -0.1736476 -9.715280e-17
outer loop
vertex 70.25364 8.241453 17.79805
vertex 71.74303 16.68828 13.50948
vertex 71.74303 16.68828 19.85948
endloop
endfacet
facet normal 0.9848078 -0.1736476 2.088842e-14
outer loop
vertex 71.74303 16.68828 19.85948
vertex 70.52503 9.780621 19.85948
vertex 70.49735 9.623619 19.64921
endloop
endfacet
facet normal 0.9848078 -0.1736476 3.693778e-15
outer loop
vertex 71.74303 16.68828 19.85948
vertex 70.49735 9.623619 19.64921
vertex 70.25364 8.241453 17.79805
endloop
endfacet
facet normal 0.9848078 -0.1736476 -1.242766e-14
outer loop
vertex 70.17712 7.807527 16.53313
vertex 70.56485 10.00645 13.58801
vertex 70.59738 10.19092 13.50948
endloop
endfacet
facet normal 0.9848078 -0.1736476 2.871830e-13
outer loop
vertex 70.13212 7.552268 16.87501
vertex 70.17712 7.807527 16.53313
vertex 70.59738 10.19092 13.50948
endloop
endfacet
facet normal 0.9848078 -0.1736476 -2.020009e-15
outer loop
vertex 70.13212 7.552268 16.87501
vertex 70.59738 10.19092 13.50948
vertex 71.74303 16.68828 13.50948
endloop
endfacet
facet normal 0.9848078 -0.1736476 1.403259e-15
outer loop
vertex 71.74303 16.68828 13.50948
vertex 70.25364 8.241453 17.79805
vertex 70.13212 7.552268 16.87501
endloop
endfacet
facet normal 0.8646604 0.5023568 4.303879e-15
outer loop
vertex 70.38076 19.03303 18.76363
vertex 70.52503 18.78471 19.85948
vertex 71.74303 16.68828 19.85948
endloop
endfacet
facet normal 0.8646604 0.5023568 -3.149245e-15
outer loop
vertex 70.38076 19.03303 18.76363
vertex 71.74303 16.68828 19.85948
vertex 70.21996 19.3098 17.54226
endloop
endfacet
facet normal 0.8646604 0.5023568 -2.260665e-15
outer loop
vertex 70.31756 19.14181 15.46639
vertex 70.13212 19.461 16.87501
vertex 70.21996 19.3098 17.54226
endloop
endfacet
facet normal 0.8646604 0.5023568 4.320090e-15
outer loop
vertex 70.56485 18.71617 13.58801
vertex 70.31756 19.14181 15.46639
vertex 70.21996 19.3098 17.54226
endloop
endfacet
facet normal 0.8646604 0.5023568 -2.697970e-15
outer loop
vertex 70.56485 18.71617 13.58801
vertex 70.21996 19.3098 17.54226
vertex 71.74303 16.68828 19.85948
endloop
endfacet
facet normal 0.8646604 0.5023568 2.810598e-16
outer loop
vertex 70.56485 18.71617 13.58801
vertex 71.74303 16.68828 19.85948
vertex 71.74303 16.68828 13.50948
endloop
endfacet
facet normal 0.8646604 0.5023568 2.681267e-14
outer loop
vertex 71.74303 16.68828 13.50948
vertex 70.59738 18.66019 13.50948
vertex 70.56485 18.71617 13.58801
endloop
endfacet
facet normal 0.6907566 0.7230873 7.729323e-16
outer loop
vertex 59.48702 31.74522 13.50948
vertex 59.48702 31.74522 19.85948
vertex 67.35004 24.23378 19.85948
endloop
endfacet
facet normal 0.6907566 0.7230873 2.005285e-14
outer loop
vertex 67.35004 24.23378 19.85948
vertex 67.30346 24.27828 19.50569
vertex 59.48702 31.74522 13.50948
endloop
endfacet
facet normal 0.6907566 0.7230873 6.526642e-15
outer loop
vertex 67.16568 24.4099 15.29081
vertex 67.4002 24.18587 13.50948
vertex 59.48702 31.74522 13.50948
endloop
endfacet
facet normal 0.6907566 0.7230873 -9.093457e-16
outer loop
vertex 66.95712 24.60913 16.87501
vertex 67.16568 24.4099 15.29081
vertex 59.48702 31.74522 13.50948
endloop
endfacet
facet normal 0.6907566 0.7230873 7.439055e-14
outer loop
vertex 59.48702 31.74522 13.50948
vertex 67.30346 24.27828 19.50569
vertex 67.28783 24.29321 19.38698
endloop
endfacet
facet normal 0.6907566 0.7230873 -6.021496e-15
outer loop
vertex 59.48702 31.74522 13.50948
vertex 67.28783 24.29321 19.38698
vertex 66.95712 24.60913 16.87501
endloop
endfacet
facet normal 0.5957348 0.8031812 1.333212e-15
outer loop
vertex 53.78483 35.97465 13.50948
vertex 53.78483 35.97465 19.85948
vertex 59.48702 31.74522 19.85948
endloop
endfacet
facet normal 0.5957348 0.8031812 6.666062e-16
outer loop
vertex 59.48702 31.74522 19.85948
vertex 59.48702 31.74522 13.50948
vertex 53.78483 35.97465 13.50948
endloop
endfacet
facet normal 0.1736476 0.9848078 0
outer loop
vertex 50.65807 36.52598 13.50948
vertex 50.65807 36.52598 19.85948
vertex 53.78483 35.97465 19.85948
endloop
endfacet
facet normal 0.1736476 0.9848078 3.886112e-16
outer loop
vertex 53.78483 35.97465 19.85948
vertex 53.78483 35.97465 13.50948
vertex 50.65807 36.52598 13.50948
endloop
endfacet
facet normal 0.1736475 0.9848079 0
outer loop
vertex 44.40455 37.62864 13.50948
vertex 44.40455 37.62864 19.85948
vertex 50.65807 36.52598 19.85948
endloop
endfacet
facet normal 0.1736475 0.9848079 0
outer loop
vertex 50.65807 36.52598 19.85948
vertex 50.65807 36.52598 13.50948
vertex 44.40455 37.62864 13.50948
endloop
endfacet
facet normal 0.0093834 0.999956 -1.118916e-15
outer loop
vertex 25.09267 37.80986 13.50948
vertex 25.09267 37.80986 19.85948
vertex 44.40455 37.62864 19.85948
endloop
endfacet
facet normal 0.0093834 0.999956 0
outer loop
vertex 44.40455 37.62864 19.85948
vertex 44.40455 37.62864 13.50948
vertex 25.09267 37.80986 13.50948
endloop
endfacet
facet normal -0.285104 0.9584966 0
outer loop
vertex 18.28781 35.78576 13.50948
vertex 18.28781 35.78576 19.85948
vertex 25.09267 37.80986 19.85948
endloop
endfacet
facet normal -0.285104 0.9584966 -1.072524e-15
outer loop
vertex 25.09267 37.80986 19.85948
vertex 25.09267 37.80986 13.50948
vertex 18.28781 35.78576 13.50948
endloop
endfacet
facet normal -0.285104 0.9584966 0
outer loop
vertex 11.48295 33.76166 13.50948
vertex 11.48295 33.76166 19.85948
vertex 18.28781 35.78576 19.85948
endloop
endfacet
facet normal -0.285104 0.9584966 0
outer loop
vertex 18.28781 35.78576 19.85948
vertex 18.28781 35.78576 13.50948
vertex 11.48295 33.76166 13.50948
endloop
endfacet
facet normal -0.2851048 0.9584964 0
outer loop
vertex 4.678107 31.73756 13.50948
vertex 4.678107 31.73756 19.85948
vertex 11.48295 33.76166 19.85948
endloop
endfacet
facet normal -0.2851048 0.9584964 0
outer loop
vertex 11.48295 33.76166 19.85948
vertex 11.48295 33.76166 13.50948
vertex 4.678107 31.73756 13.50948
endloop
endfacet
facet normal -0.5735749 0.8191531 -4.583017e-16
outer loop
vertex 1 29.16213 13.50948
vertex 1 29.16213 19.85948
vertex 4.678107 31.73756 19.85948
endloop
endfacet
facet normal -0.5735749 0.8191531 0
outer loop
vertex 4.678107 31.73756 19.85948
vertex 4.678107 31.73756 13.50948
vertex 1 29.16213 13.50948
endloop
endfacet
facet normal -0.1736472 -0.9848079 5.509827e-16
outer loop
vertex 4.12677 28.6108 13.50948
vertex 4.12677 28.6108 19.85948
vertex 1 29.16213 19.85948
endloop
endfacet
facet normal -0.1736472 -0.9848079 5.509827e-16
outer loop
vertex 1 29.16213 19.85948
vertex 1 29.16213 13.50948
vertex 4.12677 28.6108 13.50948
endloop
endfacet
facet normal 0.7933526 0 -0.6087624
outer loop
vertex 73.85187 4.174999 25.85526
vertex 71.8336 4.174999 23.225
vertex 71.8336 39.09999 23.225
endloop
endfacet
facet normal 0.7933526 1.383148e-9 -0.6087624
outer loop
vertex 73.85187 4.174999 25.85526
vertex 71.8336 39.09999 23.225
vertex 73.85187 39.09999 25.85526
endloop
endfacet
facet normal 0.923879 0 -0.3826847
outer loop
vertex 71.8336 4.174999 23.225
vertex 70.56486 4.174999 20.16201
vertex 70.56486 39.09999 20.16201
endloop
endfacet
facet normal 0.923879 0 -0.3826847
outer loop
vertex 71.8336 4.174999 23.225
vertex 70.56486 39.09999 20.16201
vertex 71.8336 39.09999 23.225
endloop
endfacet
facet normal 0.9914447 -8.238496e-16 -0.1305275
outer loop
vertex 70.56486 4.174999 20.16201
vertex 70.13212 4.174999 16.87501
vertex 70.13212 7.552268 16.87501
endloop
endfacet
facet normal 0.9914447 -7.239062e-15 -0.1305275
outer loop
vertex 70.56486 4.174999 20.16201
vertex 70.13212 7.552268 16.87501
vertex 70.25364 8.241453 17.79805
endloop
endfacet
facet normal 0.9914447 -1.446638e-15 -0.1305275
outer loop
vertex 70.25364 8.241453 17.79805
vertex 70.49735 9.623619 19.64921
vertex 70.56486 4.174999 20.16201
endloop
endfacet
facet normal 0.9914447 4.722513e-17 -0.1305275
outer loop
vertex 70.21996 19.3098 17.54226
vertex 70.13212 19.461 16.87501
vertex 70.13212 39.09999 16.87501
endloop
endfacet
facet normal 0.9914447 5.185500e-16 -0.1305275
outer loop
vertex 70.21996 19.3098 17.54226
vertex 70.13212 39.09999 16.87501
vertex 70.38076 19.03303 18.76363
endloop
endfacet
facet normal 0.9914447 1.429518e-15 -0.1305275
outer loop
vertex 70.52503 18.78471 19.85948
vertex 70.38076 19.03303 18.76363
vertex 70.13212 39.09999 16.87501
endloop
endfacet
facet normal 0.9914447 1.912116e-16 -0.1305275
outer loop
vertex 70.52503 18.78471 19.85948
vertex 70.13212 39.09999 16.87501
vertex 70.56486 39.09999 20.16201
endloop
endfacet
facet normal 0.9914447 0 -0.1305275
outer loop
vertex 70.52503 18.78471 19.85948
vertex 70.56486 39.09999 20.16201
vertex 70.56486 4.174999 20.16201
endloop
endfacet
facet normal 0.9914447 7.461761e-16 -0.1305275
outer loop
vertex 70.56486 4.174999 20.16201
vertex 70.49735 9.623619 19.64921
vertex 70.52503 9.780621 19.85948
endloop
endfacet
facet normal 0.9914447 0 -0.1305275
outer loop
vertex 70.56486 4.174999 20.16201
vertex 70.52503 9.780621 19.85948
vertex 70.52503 15.67189 19.85948
endloop
endfacet
facet normal 0.9914447 0 -0.1305275
outer loop
vertex 70.56486 4.174999 20.16201
vertex 70.52503 15.67189 19.85948
vertex 70.52503 16.90304 19.85948
endloop
endfacet
facet normal 0.9914447 0 -0.1305275
outer loop
vertex 70.56486 4.174999 20.16201
vertex 70.52503 16.90304 19.85948
vertex 70.52503 17.43634 19.85948
endloop
endfacet
facet normal 0.9914447 0 -0.1305275
outer loop
vertex 70.56486 4.174999 20.16201
vertex 70.52503 17.43634 19.85948
vertex 70.52503 17.75164 19.85948
endloop
endfacet
facet normal 0.9914447 0 -0.1305275
outer loop
vertex 70.56486 4.174999 20.16201
vertex 70.52503 17.75164 19.85948
vertex 70.52503 18.78471 19.85948
endloop
endfacet
facet normal 0.991445 0 0.1305249
outer loop
vertex 70.13212 4.174999 16.87501
vertex 70.56485 4.174999 13.58801
vertex 70.56485 10.00645 13.58801
endloop
endfacet
facet normal 0.991445 -3.375279e-16 0.1305249
outer loop
vertex 70.56485 10.00645 13.58801
vertex 70.17712 7.807527 16.53313
vertex 70.13212 4.174999 16.87501
endloop
endfacet
facet normal 0.991445 3.412395e-17 0.1305249
outer loop
vertex 70.31756 19.14181 15.46639
vertex 70.56485 18.71617 13.58801
vertex 70.56485 39.09999 13.58801
endloop
endfacet
facet normal 0.991445 8.238330e-16 0.1305249
outer loop
vertex 70.13212 7.552268 16.87501
vertex 70.13212 4.174999 16.87501
vertex 70.17712 7.807527 16.53313
endloop
endfacet
facet normal 0.991445 6.778590e-16 0.1305249
outer loop
vertex 70.31756 19.14181 15.46639
vertex 70.56485 39.09999 13.58801
vertex 70.13212 39.09999 16.87501
endloop
endfacet
facet normal 0.991445 -4.722418e-17 0.1305249
outer loop
vertex 70.13212 39.09999 16.87501
vertex 70.13212 19.461 16.87501
vertex 70.31756 19.14181 15.46639
endloop
endfacet
facet normal 0.9238801 -3.759235e-16 0.3826821
outer loop
vertex 70.56485 4.174999 13.58801
vertex 71.83358 4.174999 10.52501
vertex 71.83358 39.09999 10.52501
endloop
endfacet
facet normal 0.9238801 0 0.3826821
outer loop
vertex 70.59738 10.19092 13.50948
vertex 70.56485 10.00645 13.58801
vertex 70.56485 4.174999 13.58801
endloop
endfacet
facet normal 0.9238801 -3.703146e-16 0.3826821
outer loop
vertex 70.59738 10.19092 13.50948
vertex 70.56485 4.174999 13.58801
vertex 71.83358 39.09999 10.52501
endloop
endfacet
facet normal 0.9238801 1.000470e-16 0.3826821
outer loop
vertex 71.83358 39.09999 10.52501
vertex 70.56485 39.09999 13.58801
vertex 70.56485 18.71617 13.58801
endloop
endfacet
facet normal 0.9238801 2.199429e-15 0.3826821
outer loop
vertex 71.83358 39.09999 10.52501
vertex 70.56485 18.71617 13.58801
vertex 70.59738 18.66019 13.50948
endloop
endfacet
facet normal 0.9238801 -9.167338e-16 0.3826821
outer loop
vertex 71.83358 39.09999 10.52501
vertex 70.59738 18.66019 13.50948
vertex 70.59738 17.91866 13.50948
endloop
endfacet
facet normal 0.9238801 0 0.3826821
outer loop
vertex 71.83358 39.09999 10.52501
vertex 70.59738 17.91866 13.50948
vertex 70.59738 17.3919 13.50948
endloop
endfacet
facet normal 0.9238801 0 0.3826821
outer loop
vertex 71.83358 39.09999 10.52501
vertex 70.59738 17.3919 13.50948
vertex 70.59738 16.89028 13.50948
endloop
endfacet
facet normal 0.9238801 0 0.3826821
outer loop
vertex 71.83358 39.09999 10.52501
vertex 70.59738 16.89028 13.50948
vertex 70.59738 15.73226 13.50948
endloop
endfacet
facet normal 0.9238801 0 0.3826821
outer loop
vertex 71.83358 39.09999 10.52501
vertex 70.59738 15.73226 13.50948
vertex 70.59738 14.91557 13.50948
endloop
endfacet
facet normal 0.9238801 -1.438793e-16 0.3826821
outer loop
vertex 71.83358 39.09999 10.52501
vertex 70.59738 14.91557 13.50948
vertex 70.59738 10.19092 13.50948
endloop
endfacet
facet normal 0.7933542 3.228130e-16 0.6087603
outer loop
vertex 71.83358 4.174999 10.52501
vertex 73.85185 4.174999 7.89475
vertex 73.85185 39.09999 7.89475
endloop
endfacet
facet normal 0.7933542 -3.221676e-16 0.6087603
outer loop
vertex 71.83358 4.174999 10.52501
vertex 73.85185 39.09999 7.89475
vertex 71.83358 39.09999 10.52501
endloop
endfacet
facet normal 0.6087625 2.477033e-16 0.7933525
outer loop
vertex 73.85185 4.174999 7.89475
vertex 76.4821 4.174999 5.87648
vertex 76.4821 39.09999 5.87648
endloop
endfacet
facet normal 0.6087625 2.454610e-16 0.7933525
outer loop
vertex 73.85185 4.174999 7.89475
vertex 76.4821 39.09999 5.87648
vertex 73.85185 39.09999 7.89475
endloop
endfacet
facet normal 0.3826846 -1.557130e-16 0.923879
outer loop
vertex 76.4821 4.174999 5.87648
vertex 79.54509 4.174999 4.607741
vertex 79.54509 39.09999 4.607741
endloop
endfacet
facet normal 0.3826846 1.572485e-16 0.923879
outer loop
vertex 76.4821 4.174999 5.87648
vertex 79.54509 39.09999 4.607741
vertex 76.4821 39.09999 5.87648
endloop
endfacet
facet normal 0.1305274 5.311115e-17 0.9914447
outer loop
vertex 79.54509 4.174999 4.607741
vertex 82.83209 4.174999 4.174995
vertex 82.83209 39.09999 4.174995
endloop
endfacet
facet normal 0.1305274 -5.177696e-17 0.9914447
outer loop
vertex 79.54509 4.174999 4.607741
vertex 82.83209 39.09999 4.174995
vertex 79.54509 39.09999 4.607741
endloop
endfacet
facet normal -0.1305247 0 0.9914451
outer loop
vertex 82.83209 4.174999 4.174995
vertex 86.11909 4.174999 4.607732
vertex 86.11909 39.09999 4.607732
endloop
endfacet
facet normal -0.1305247 -5.369462e-17 0.9914451
outer loop
vertex 82.83209 4.174999 4.174995
vertex 86.11909 39.09999 4.607732
vertex 82.83209 39.09999 4.174995
endloop
endfacet
facet normal -0.3826821 0 0.9238801
outer loop
vertex 86.11909 4.174999 4.607732
vertex 89.18209 4.174999 5.876464
vertex 89.18209 39.09999 5.876464
endloop
endfacet
facet normal -0.3826821 0 0.9238801
outer loop
vertex 86.11909 4.174999 4.607732
vertex 89.18209 39.09999 5.876464
vertex 86.11909 39.09999 4.607732
endloop
endfacet
facet normal -0.6087605 0 0.793354
outer loop
vertex 89.18209 4.174999 5.876464
vertex 91.81235 4.174999 7.894726
vertex 91.81235 39.09999 7.894726
endloop
endfacet
facet normal -0.6087605 0 0.793354
outer loop
vertex 89.18209 4.174999 5.876464
vertex 91.81235 39.09999 7.894726
vertex 89.18209 39.09999 5.876464
endloop
endfacet
facet normal -0.7933526 0 0.6087624
outer loop
vertex 91.81235 4.174999 7.894726
vertex 93.83062 4.174999 10.52498
vertex 93.83062 39.09999 10.52498
endloop
endfacet
facet normal -0.7933526 0 0.6087624
outer loop
vertex 91.81235 4.174999 7.894726
vertex 93.83062 39.09999 10.52498
vertex 91.81235 39.09999 7.894726
endloop
endfacet
facet normal -0.923879 -1.946413e-17 0.3826847
outer loop
vertex 93.83062 4.174999 10.52498
vertex 95.09936 4.174999 13.58798
vertex 95.09936 39.09999 13.58798
endloop
endfacet
facet normal -0.923879 0 0.3826847
outer loop
vertex 93.83062 4.174999 10.52498
vertex 95.09936 39.09999 13.58798
vertex 93.83062 39.09999 10.52498
endloop
endfacet
facet normal -0.9914447 1.327779e-17 0.1305274
outer loop
vertex 95.09936 4.174999 13.58798
vertex 95.53211 4.174999 16.87498
vertex 95.53211 39.09999 16.87498
endloop
endfacet
facet normal -0.9914447 -5.752995e-18 0.1305274
outer loop
vertex 95.09936 4.174999 13.58798
vertex 95.53211 39.09999 16.87498
vertex 95.09936 39.09999 13.58798
endloop
endfacet
facet normal -0.991445 -1.327754e-17 -0.1305251
outer loop
vertex 95.53211 4.174999 16.87498
vertex 95.09937 4.174999 20.16198
vertex 95.09937 39.09999 20.16198
endloop
endfacet
facet normal -0.991445 -1.342366e-17 -0.1305251
outer loop
vertex 95.53211 4.174999 16.87498
vertex 95.09937 39.09999 20.16198
vertex 95.53211 39.09999 16.87498
endloop
endfacet
facet normal -0.92388 3.892803e-17 -0.3826824
outer loop
vertex 95.09937 4.174999 20.16198
vertex 93.83064 4.174999 23.22497
vertex 93.83064 39.09999 23.22497
endloop
endfacet
facet normal -0.92388 -4.218863e-17 -0.3826824
outer loop
vertex 95.09937 4.174999 20.16198
vertex 93.83064 39.09999 23.22497
vertex 95.09937 39.09999 20.16198
endloop
endfacet
facet normal -0.7933542 6.192559e-17 -0.6087603
outer loop
vertex 93.83064 4.174999 23.22497
vertex 91.81238 4.174999 25.85523
vertex 91.81238 39.09999 25.85523
endloop
endfacet
facet normal -0.7933542 6.136528e-17 -0.6087603
outer loop
vertex 93.83064 4.174999 23.22497
vertex 91.81238 39.09999 25.85523
vertex 93.83064 39.09999 23.22497
endloop
endfacet
facet normal -0.6087624 0 -0.7933526
outer loop
vertex 91.81238 4.174999 25.85523
vertex 89.18212 4.174999 27.8735
vertex 89.18212 39.09999 27.8735
endloop
endfacet
facet normal -0.6087624 8.437726e-17 -0.7933526
outer loop
vertex 91.81238 4.174999 25.85523
vertex 89.18212 39.09999 27.8735
vertex 91.81238 39.09999 25.85523
endloop
endfacet
facet normal -0.3826849 -1.879615e-16 -0.9238789
outer loop
vertex 89.18212 4.174999 27.8735
vertex 86.11913 4.174999 29.14224
vertex 86.11913 39.09999 29.14224
endloop
endfacet
facet normal -0.3826849 0 -0.9238789
outer loop
vertex 89.18212 4.174999 27.8735
vertex 86.11913 39.09999 29.14224
vertex 89.18212 39.09999 27.8735
endloop
endfacet
facet normal -0.1305273 -2.017077e-16 -0.9914447
outer loop
vertex 86.11913 4.174999 29.14224
vertex 82.83212 4.174999 29.57499
vertex 82.83212 39.09999 29.57499
endloop
endfacet
facet normal -0.1305273 -2.013544e-16 -0.9914447
outer loop
vertex 86.11913 4.174999 29.14224
vertex 82.83212 39.09999 29.57499
vertex 86.11913 39.09999 29.14224
endloop
endfacet
facet normal 0.1305251 -5.311018e-17 -0.991445
outer loop
vertex 82.83212 4.174999 29.57499
vertex 79.54512 4.174999 29.14225
vertex 79.54512 39.09999 29.14225
endloop
endfacet
facet normal 0.1305251 -2.013548e-16 -0.991445
outer loop
vertex 82.83212 4.174999 29.57499
vertex 79.54512 39.09999 29.14225
vertex 82.83212 39.09999 29.57499
endloop
endfacet
facet normal 0.3826824 0 -0.92388
outer loop
vertex 79.54512 4.174999 29.14225
vertex 76.48213 4.174999 27.87352
vertex 76.48213 39.09999 27.87352
endloop
endfacet
facet normal 0.3826824 -1.534132e-16 -0.92388
outer loop
vertex 79.54512 4.174999 29.14225
vertex 76.48213 39.09999 27.87352
vertex 79.54512 39.09999 29.14225
endloop
endfacet
facet normal 0.6087605 -1.383145e-9 -0.7933541
outer loop
vertex 76.48213 4.174999 27.87352
vertex 73.85187 4.174999 25.85526
vertex 73.85187 39.09999 25.85526
endloop
endfacet
facet normal 0.6087605 0 -0.7933541
outer loop
vertex 76.48213 4.174999 27.87352
vertex 73.85187 39.09999 25.85526
vertex 76.48213 39.09999 27.87352
endloop
endfacet
facet normal 8.585210e-7 1 -6.587681e-7
outer loop
vertex 73.85187 39.09999 25.85526
vertex 71.8336 39.09999 23.225
vertex 69.08398 39.1 24.8125
endloop
endfacet
facet normal 8.585210e-7 1 -6.587680e-7
outer loop
vertex 73.85187 39.09999 25.85526
vertex 69.08398 39.1 24.8125
vertex 71.60681 39.1 28.10032
endloop
endfacet
facet normal 9.997693e-7 1 -4.141196e-7
outer loop
vertex 71.8336 39.09999 23.225
vertex 70.56486 39.09999 20.16201
vertex 67.49805 39.1 20.98376
endloop
endfacet
facet normal 9.997693e-7 1 -4.141196e-7
outer loop
vertex 71.8336 39.09999 23.225
vertex 67.49805 39.1 20.98376
vertex 69.08398 39.1 24.8125
endloop
endfacet
facet normal 1.072885e-6 1 -1.412495e-7
outer loop
vertex 70.56486 39.09999 20.16201
vertex 70.13212 39.09999 16.87501
vertex 66.95712 39.1 16.87501
endloop
endfacet
facet normal 1.072885e-6 1 -1.412495e-7
outer loop
vertex 70.56486 39.09999 20.16201
vertex 66.95712 39.1 16.87501
vertex 67.49805 39.1 20.98376
endloop
endfacet
facet normal 1.072885e-6 1 1.412466e-7
outer loop
vertex 70.13212 39.09999 16.87501
vertex 70.56485 39.09999 13.58801
vertex 67.49804 39.1 12.76626
endloop
endfacet
facet normal 1.072885e-6 1 1.412467e-7
outer loop
vertex 70.13212 39.09999 16.87501
vertex 67.49804 39.1 12.76626
vertex 66.95712 39.1 16.87501
endloop
endfacet
facet normal 9.997705e-7 1 4.141168e-7
outer loop
vertex 70.56485 39.09999 13.58801
vertex 71.83358 39.09999 10.52501
vertex 69.08395 39.1 8.937515
endloop
endfacet
facet normal 9.997704e-7 1 4.141168e-7
outer loop
vertex 70.56485 39.09999 13.58801
vertex 69.08395 39.1 8.937515
vertex 67.49804 39.1 12.76626
endloop
endfacet
facet normal 8.585228e-7 1 6.587657e-7
outer loop
vertex 71.83358 39.09999 10.52501
vertex 73.85185 39.09999 7.89475
vertex 71.60678 39.1 5.649692
endloop
endfacet
facet normal 8.585228e-7 1 6.587657e-7
outer loop
vertex 71.83358 39.09999 10.52501
vertex 71.60678 39.1 5.649692
vertex 69.08395 39.1 8.937515
endloop
endfacet
facet normal 6.587681e-7 1 8.585210e-7
outer loop
vertex 73.85185 39.09999 7.89475
vertex 76.4821 39.09999 5.87648
vertex 74.8946 39.1 3.126856
endloop
endfacet
facet normal 6.587681e-7 1 8.585210e-7
outer loop
vertex 73.85185 39.09999 7.89475
vertex 74.8946 39.1 3.126856
vertex 71.60678 39.1 5.649692
endloop
endfacet
facet normal 4.141195e-7 1 9.997692e-7
outer loop
vertex 76.4821 39.09999 5.87648
vertex 79.54509 39.09999 4.607741
vertex 78.72334 39.1 1.540932
endloop
endfacet
facet normal 4.141196e-7 1 9.997693e-7
outer loop
vertex 76.4821 39.09999 5.87648
vertex 78.72334 39.1 1.540932
vertex 74.8946 39.1 3.126856
endloop
endfacet
facet normal 1.412494e-7 1 1.072885e-6
outer loop
vertex 79.54509 39.09999 4.607741
vertex 82.83209 39.09999 4.174995
vertex 82.83209 39.1 1
endloop
endfacet
facet normal 1.412494e-7 1 1.072885e-6
outer loop
vertex 79.54509 39.09999 4.607741
vertex 82.83209 39.1 1
vertex 78.72334 39.1 1.540932
endloop
endfacet
facet normal -1.412464e-7 1 1.072885e-6
outer loop
vertex 82.83209 39.09999 4.174995
vertex 86.11909 39.09999 4.607732
vertex 86.94084 39.1 1.540921
endloop
endfacet
facet normal -1.412465e-7 1 1.072885e-6
outer loop
vertex 82.83209 39.09999 4.174995
vertex 86.94084 39.1 1.540921
vertex 82.83209 39.1 1
endloop
endfacet
facet normal -4.141169e-7 1 9.997706e-7
outer loop
vertex 86.11909 39.09999 4.607732
vertex 89.18209 39.09999 5.876464
vertex 90.76959 39.1 3.126836
endloop
endfacet
facet normal -4.141169e-7 1 9.997704e-7
outer loop
vertex 86.11909 39.09999 4.607732
vertex 90.76959 39.1 3.126836
vertex 86.94084 39.1 1.540921
endloop
endfacet
facet normal -6.587660e-7 1 8.585226e-7
outer loop
vertex 89.18209 39.09999 5.876464
vertex 91.81235 39.09999 7.894726
vertex 94.05741 39.1 5.649663
endloop
endfacet
facet normal -6.587659e-7 1 8.585227e-7
outer loop
vertex 89.18209 39.09999 5.876464
vertex 94.05741 39.1 5.649663
vertex 90.76959 39.1 3.126836
endloop
endfacet
facet normal -8.585210e-7 1 6.587681e-7
outer loop
vertex 91.81235 39.09999 7.894726
vertex 93.83062 39.09999 10.52498
vertex 96.58024 39.1 8.937477
endloop
endfacet
facet normal -8.585210e-7 1 6.587680e-7
outer loop
vertex 91.81235 39.09999 7.894726
vertex 96.58024 39.1 8.937477
vertex 94.05741 39.1 5.649663
endloop
endfacet
facet normal -9.997692e-7 1 4.141195e-7
outer loop
vertex 93.83062 39.09999 10.52498
vertex 95.09936 39.09999 13.58798
vertex 98.16617 39.1 12.76622
endloop
endfacet
facet normal -9.997693e-7 1 4.141196e-7
outer loop
vertex 93.83062 39.09999 10.52498
vertex 98.16617 39.1 12.76622
vertex 96.58024 39.1 8.937477
endloop
endfacet
facet normal -1.072885e-6 1 1.412494e-7
outer loop
vertex 95.09936 39.09999 13.58798
vertex 95.53211 39.09999 16.87498
vertex 98.7071 39.1 16.87497
endloop
endfacet
facet normal -1.072885e-6 1 1.412492e-7
outer loop
vertex 95.09936 39.09999 13.58798
vertex 98.7071 39.1 16.87497
vertex 98.16617 39.1 12.76622
endloop
endfacet
facet normal -1.072885e-6 1 -1.412468e-7
outer loop
vertex 95.53211 39.09999 16.87498
vertex 95.09937 39.09999 20.16198
vertex 98.16618 39.1 20.98372
endloop
endfacet
facet normal -1.072885e-6 1 -1.412467e-7
outer loop
vertex 95.53211 39.09999 16.87498
vertex 98.16618 39.1 20.98372
vertex 98.7071 39.1 16.87497
endloop
endfacet
facet normal -9.997700e-7 1 -4.141170e-7
outer loop
vertex 95.09937 39.09999 20.16198
vertex 93.83064 39.09999 23.22497
vertex 96.58027 39.1 24.81247
endloop
endfacet
facet normal -9.997705e-7 1 -4.141168e-7
outer loop
vertex 95.09937 39.09999 20.16198
vertex 96.58027 39.1 24.81247
vertex 98.16618 39.1 20.98372
endloop
endfacet
facet normal -8.585228e-7 1 -6.587657e-7
outer loop
vertex 93.83064 39.09999 23.22497
vertex 91.81238 39.09999 25.85523
vertex 94.05744 39.1 28.10029
endloop
endfacet
facet normal -8.585224e-7 1 -6.587657e-7
outer loop
vertex 93.83064 39.09999 23.22497
vertex 94.05744 39.1 28.10029
vertex 96.58027 39.1 24.81247
endloop
endfacet
facet normal -6.587679e-7 1 -8.585207e-7
outer loop
vertex 91.81238 39.09999 25.85523
vertex 89.18212 39.09999 27.8735
vertex 90.76963 39.1 30.62312
endloop
endfacet
facet normal -6.587682e-7 1 -8.585208e-7
outer loop
vertex 91.81238 39.09999 25.85523
vertex 90.76963 39.1 30.62312
vertex 94.05744 39.1 28.10029
endloop
endfacet
facet normal -4.141198e-7 1 -9.997692e-7
outer loop
vertex 89.18212 39.09999 27.8735
vertex 86.11913 39.09999 29.14224
vertex 86.94088 39.1 32.20905
endloop
endfacet
facet normal -4.141195e-7 1 -9.997690e-7
outer loop
vertex 89.18212 39.09999 27.8735
vertex 86.94088 39.1 32.20905
vertex 90.76963 39.1 30.62312
endloop
endfacet
facet normal -1.412492e-7 1 -1.072885e-6
outer loop
vertex 86.11913 39.09999 29.14224
vertex 82.83212 39.09999 29.57499
vertex 82.83213 39.1 32.74998
endloop
endfacet
facet normal -1.412493e-7 1 -1.072885e-6
outer loop
vertex 86.11913 39.09999 29.14224
vertex 82.83213 39.1 32.74998
vertex 86.94088 39.1 32.20905
endloop
endfacet
facet normal 1.412468e-7 1 -1.072885e-6
outer loop
vertex 82.83212 39.09999 29.57499
vertex 79.54512 39.09999 29.14225
vertex 78.72338 39.1 32.20906
endloop
endfacet
facet normal 1.412469e-7 1 -1.072885e-6
outer loop
vertex 82.83212 39.09999 29.57499
vertex 78.72338 39.1 32.20906
vertex 82.83213 39.1 32.74998
endloop
endfacet
facet normal 4.141171e-7 1 -9.997704e-7
outer loop
vertex 79.54512 39.09999 29.14225
vertex 76.48213 39.09999 27.87352
vertex 74.89463 39.1 30.62314
endloop
endfacet
facet normal 4.141171e-7 1 -9.997704e-7
outer loop
vertex 79.54512 39.09999 29.14225
vertex 74.89463 39.1 30.62314
vertex 78.72338 39.1 32.20906
endloop
endfacet
facet normal 6.587659e-7 1 -8.585226e-7
outer loop
vertex 76.48213 39.09999 27.87352
vertex 73.85187 39.09999 25.85526
vertex 71.60681 39.1 28.10032
endloop
endfacet
facet normal 6.587659e-7 1 -8.585227e-7
outer loop
vertex 76.48213 39.09999 27.87352
vertex 71.60681 39.1 28.10032
vertex 74.89463 39.1 30.62314
endloop
endfacet
facet normal -0.7933526 0 0.6087624
outer loop
vertex 71.60681 39.1 28.10032
vertex 69.08398 39.1 24.8125
vertex 69.08398 1.000005 24.8125
endloop
endfacet
facet normal -0.7933526 0 0.6087624
outer loop
vertex 71.60681 39.1 28.10032
vertex 69.08398 1.000005 24.8125
vertex 71.60681 1.000005 28.10032
endloop
endfacet
facet normal -0.923879 -3.089119e-16 0.3826847
outer loop
vertex 69.08398 39.1 24.8125
vertex 67.49805 39.1 20.98376
vertex 67.49805 1.000005 20.98376
endloop
endfacet
facet normal -0.923879 0 0.3826847
outer loop
vertex 69.08398 39.1 24.8125
vertex 67.49805 1.000005 20.98376
vertex 69.08398 1.000005 24.8125
endloop
endfacet
facet normal -0.9914447 -8.849554e-16 0.1305276
outer loop
vertex 66.95712 1.000005 16.87501
vertex 67.17574 16.3981 18.53556
vertex 67.09736 16.53301 17.94024
endloop
endfacet
facet normal -0.9914447 -8.637768e-16 0.1305276
outer loop
vertex 67.09736 16.53301 17.94024
vertex 66.95712 16.77439 16.87501
vertex 66.95712 1.000005 16.87501
endloop
endfacet
facet normal -0.9914447 -6.965768e-16 0.1305276
outer loop
vertex 67.28783 24.29321 19.38698
vertex 67.49805 39.1 20.98376
vertex 66.95712 39.1 16.87501
endloop
endfacet
facet normal -0.9914447 -6.400270e-17 0.1305276
outer loop
vertex 66.95712 39.1 16.87501
vertex 66.95712 24.60913 16.87501
vertex 67.28783 24.29321 19.38698
endloop
endfacet
facet normal -0.9914447 6.991230e-15 0.1305276
outer loop
vertex 67.49805 39.1 20.98376
vertex 67.28783 24.29321 19.38698
vertex 67.30346 24.27828 19.50569
endloop
endfacet
facet normal -0.9914447 1.946127e-15 0.1305276
outer loop
vertex 67.49805 39.1 20.98376
vertex 67.30346 24.27828 19.50569
vertex 67.35004 24.23378 19.85948
endloop
endfacet
facet normal -0.9914447 -3.576260e-16 0.1305276
outer loop
vertex 67.49805 1.000005 20.98376
vertex 67.49805 39.1 20.98376
vertex 67.35004 24.23378 19.85948
endloop
endfacet
facet normal -0.9914447 -3.336431e-15 0.1305276
outer loop
vertex 67.49805 1.000005 20.98376
vertex 67.35004 24.23378 19.85948
vertex 67.35004 24.09479 19.85948
endloop
endfacet
facet normal -0.9914447 0 0.1305276
outer loop
vertex 67.49805 1.000005 20.98376
vertex 67.35004 24.09479 19.85948
vertex 67.35004 24.00944 19.85948
endloop
endfacet
facet normal -0.9914447 0 0.1305276
outer loop
vertex 67.49805 1.000005 20.98376
vertex 67.35004 24.00944 19.85948
vertex 67.35004 20.52355 19.85948
endloop
endfacet
facet normal -0.9914447 0 0.1305276
outer loop
vertex 67.49805 1.000005 20.98376
vertex 67.35004 20.52355 19.85948
vertex 67.35004 19.38633 19.85948
endloop
endfacet
facet normal -0.9914447 0 0.1305276
outer loop
vertex 67.49805 1.000005 20.98376
vertex 67.35004 19.38633 19.85948
vertex 67.35004 17.46288 19.85948
endloop
endfacet
facet normal -0.9914447 0 0.1305276
outer loop
vertex 67.49805 1.000005 20.98376
vertex 67.35004 17.46288 19.85948
vertex 67.35004 16.0981 19.85948
endloop
endfacet
facet normal -0.9914447 -1.254488e-15 0.1305276
outer loop
vertex 66.95712 1.000005 16.87501
vertex 67.49805 1.000005 20.98376
vertex 67.35004 16.0981 19.85948
endloop
endfacet
facet normal -0.9914447 9.302710e-16 0.1305276
outer loop
vertex 67.35004 16.0981 19.85948
vertex 67.17574 16.3981 18.53556
vertex 66.95712 1.000005 16.87501
endloop
endfacet
facet normal -0.991445 1.699291e-15 -0.130525
outer loop
vertex 67.4002 24.18587 13.50948
vertex 67.16568 24.4099 15.29081
vertex 66.95712 39.1 16.87501
endloop
endfacet
facet normal -0.991445 -8.981341e-16 -0.130525
outer loop
vertex 67.4002 24.18587 13.50948
vertex 66.95712 39.1 16.87501
vertex 67.49804 39.1 12.76626
endloop
endfacet
facet normal -0.991445 -1.217107e-17 -0.130525
outer loop
vertex 67.4002 24.18587 13.50948
vertex 67.49804 39.1 12.76626
vertex 67.49804 1.000005 12.76626
endloop
endfacet
facet normal -0.991445 9.500812e-16 -0.130525
outer loop
vertex 67.49804 1.000005 12.76626
vertex 67.28203 16.21516 14.40708
vertex 67.4002 16.01176 13.50948
endloop
endfacet
facet normal -0.991445 3.215198e-16 -0.130525
outer loop
vertex 67.49804 1.000005 12.76626
vertex 67.4002 16.01176 13.50948
vertex 67.4002 17.45403 13.50948
endloop
endfacet
facet normal -0.991445 0 -0.130525
outer loop
vertex 67.49804 1.000005 12.76626
vertex 67.4002 17.45403 13.50948
vertex 67.4002 19.35552 13.50948
endloop
endfacet
facet normal -0.991445 0 -0.130525
outer loop
vertex 67.49804 1.000005 12.76626
vertex 67.4002 19.35552 13.50948
vertex 67.4002 21.35231 13.50948
endloop
endfacet
facet normal -0.991445 0 -0.130525
outer loop
vertex 67.49804 1.000005 12.76626
vertex 67.4002 21.35231 13.50948
vertex 67.4002 24.02063 13.50948
endloop
endfacet
facet normal -0.991445 0 -0.130525
outer loop
vertex 67.49804 1.000005 12.76626
vertex 67.4002 24.02063 13.50948
vertex 67.4002 24.15412 13.50948
endloop
endfacet
facet normal -0.991445 -7.303090e-15 -0.130525
outer loop
vertex 67.49804 1.000005 12.76626
vertex 67.4002 24.15412 13.50948
vertex 67.4002 24.18587 13.50948
endloop
endfacet
facet normal -0.991445 -9.225715e-16 -0.130525
outer loop
vertex 67.49804 1.000005 12.76626
vertex 66.95712 1.000005 16.87501
vertex 66.95712 16.77439 16.87501
endloop
endfacet
facet normal -0.991445 1.283046e-15 -0.130525
outer loop
vertex 66.95712 16.77439 16.87501
vertex 67.28203 16.21516 14.40708
vertex 67.49804 1.000005 12.76626
endloop
endfacet
facet normal -0.991445 6.400140e-17 -0.130525
outer loop
vertex 66.95712 24.60913 16.87501
vertex 66.95712 39.1 16.87501
vertex 67.16568 24.4099 15.29081
endloop
endfacet
facet normal -0.9238801 0 -0.3826821
outer loop
vertex 67.49804 39.1 12.76626
vertex 69.08395 39.1 8.937515
vertex 69.08395 1.000005 8.937515
endloop
endfacet
facet normal -0.9238801 -3.375091e-17 -0.3826821
outer loop
vertex 67.49804 39.1 12.76626
vertex 69.08395 1.000005 8.937515
vertex 67.49804 1.000005 12.76626
endloop
endfacet
facet normal -0.7933542 0 -0.6087603
outer loop
vertex 69.08395 39.1 8.937515
vertex 71.60678 39.1 5.649692
vertex 71.60678 1.000005 5.649692
endloop
endfacet
facet normal -0.7933542 0 -0.6087603
outer loop
vertex 69.08395 39.1 8.937515
vertex 71.60678 1.000005 5.649692
vertex 69.08395 1.000005 8.937515
endloop
endfacet
facet normal -0.6087625 0 -0.7933525
outer loop
vertex 71.60678 39.1 5.649692
vertex 74.8946 39.1 3.126856
vertex 74.8946 1.000005 3.126856
endloop
endfacet
facet normal -0.6087625 0 -0.7933525
outer loop
vertex 71.60678 39.1 5.649692
vertex 74.8946 1.000005 3.126856
vertex 71.60678 1.000005 5.649692
endloop
endfacet
facet normal -0.3826847 0 -0.923879
outer loop
vertex 74.8946 39.1 3.126856
vertex 78.72334 39.1 1.540932
vertex 78.72334 1.000005 1.540932
endloop
endfacet
facet normal -0.3826847 0 -0.923879
outer loop
vertex 74.8946 39.1 3.126856
vertex 78.72334 1.000005 1.540932
vertex 74.8946 1.000005 3.126856
endloop
endfacet
facet normal -0.1305275 0 -0.9914447
outer loop
vertex 78.72334 39.1 1.540932
vertex 82.83209 39.1 1
vertex 82.83209 1.000005 1
endloop
endfacet
facet normal -0.1305275 0 -0.9914447
outer loop
vertex 78.72334 39.1 1.540932
vertex 82.83209 1.000005 1
vertex 78.72334 1.000005 1.540932
endloop
endfacet
facet normal 0.1305248 0 -0.991445
outer loop
vertex 82.83209 39.1 1
vertex 86.94084 39.1 1.540921
vertex 86.94084 1.000005 1.540921
endloop
endfacet
facet normal 0.1305248 0 -0.991445
outer loop
vertex 82.83209 39.1 1
vertex 86.94084 1.000005 1.540921
vertex 82.83209 1.000005 1
endloop
endfacet
facet normal 0.3826822 0 -0.92388
outer loop
vertex 86.94084 39.1 1.540921
vertex 90.76959 39.1 3.126836
vertex 90.76959 1.000005 3.126836
endloop
endfacet
facet normal 0.3826822 0 -0.92388
outer loop
vertex 86.94084 39.1 1.540921
vertex 90.76959 1.000005 3.126836
vertex 86.94084 1.000005 1.540921
endloop
endfacet
facet normal 0.6087604 0 -0.7933541
outer loop
vertex 90.76959 39.1 3.126836
vertex 94.05741 39.1 5.649663
vertex 94.05741 1.000005 5.649663
endloop
endfacet
facet normal 0.6087604 0 -0.7933541
outer loop
vertex 90.76959 39.1 3.126836
vertex 94.05741 1.000005 5.649663
vertex 90.76959 1.000005 3.126836
endloop
endfacet
facet normal 0.7933526 0 -0.6087624
outer loop
vertex 94.05741 39.1 5.649663
vertex 96.58024 39.1 8.937477
vertex 96.58024 1.000005 8.937477
endloop
endfacet
facet normal 0.7933526 0 -0.6087624
outer loop
vertex 94.05741 39.1 5.649663
vertex 96.58024 1.000005 8.937477
vertex 94.05741 1.000005 5.649663
endloop
endfacet
facet normal 0.923879 0 -0.3826847
outer loop
vertex 96.58024 39.1 8.937477
vertex 98.16617 39.1 12.76622
vertex 98.16617 1.000005 12.76622
endloop
endfacet
facet normal 0.923879 0 -0.3826847
outer loop
vertex 96.58024 39.1 8.937477
vertex 98.16617 1.000005 12.76622
vertex 96.58024 1.000005 8.937477
endloop
endfacet
facet normal 0.9914447 0 -0.1305273
outer loop
vertex 98.16617 39.1 12.76622
vertex 98.7071 39.1 16.87497
vertex 98.7071 1.000005 16.87497
endloop
endfacet
facet normal 0.9914447 0 -0.1305273
outer loop
vertex 98.16617 39.1 12.76622
vertex 98.7071 1.000005 16.87497
vertex 98.16617 1.000005 12.76622
endloop
endfacet
facet normal 0.991445 0 0.130525
outer loop
vertex 98.7071 39.1 16.87497
vertex 98.16618 39.1 20.98372
vertex 98.16618 1.000005 20.98372
endloop
endfacet
facet normal 0.991445 0 0.130525
outer loop
vertex 98.7071 39.1 16.87497
vertex 98.16618 1.000005 20.98372
vertex 98.7071 1.000005 16.87497
endloop
endfacet
facet normal 0.9238801 0 0.3826821
outer loop
vertex 98.16618 39.1 20.98372
vertex 96.58027 39.1 24.81247
vertex 96.58027 1.000005 24.81247
endloop
endfacet
facet normal 0.9238801 0 0.3826821
outer loop
vertex 98.16618 39.1 20.98372
vertex 96.58027 1.000005 24.81247
vertex 98.16618 1.000005 20.98372
endloop
endfacet
facet normal 0.7933541 0 0.6087604
outer loop
vertex 96.58027 39.1 24.81247
vertex 94.05744 39.1 28.10029
vertex 94.05744 1.000005 28.10029
endloop
endfacet
facet normal 0.7933541 0 0.6087604
outer loop
vertex 96.58027 39.1 24.81247
vertex 94.05744 1.000005 28.10029
vertex 96.58027 1.000005 24.81247
endloop
endfacet
facet normal 0.6087626 0 0.7933524
outer loop
vertex 94.05744 39.1 28.10029
vertex 90.76963 39.1 30.62312
vertex 90.76963 1.000005 30.62312
endloop
endfacet
facet normal 0.6087626 0 0.7933524
outer loop
vertex 94.05744 39.1 28.10029
vertex 90.76963 1.000005 30.62312
vertex 94.05744 1.000005 28.10029
endloop
endfacet
facet normal 0.3826847 0 0.923879
outer loop
vertex 90.76963 39.1 30.62312
vertex 86.94088 39.1 32.20905
vertex 86.94088 1.000005 32.20905
endloop
endfacet
facet normal 0.3826847 0 0.923879
outer loop
vertex 90.76963 39.1 30.62312
vertex 86.94088 1.000005 32.20905
vertex 90.76963 1.000005 30.62312
endloop
endfacet
facet normal 0.1305274 0 0.9914447
outer loop
vertex 86.94088 39.1 32.20905
vertex 82.83213 39.1 32.74998
vertex 82.83213 1.000005 32.74998
endloop
endfacet
facet normal 0.1305274 0 0.9914447
outer loop
vertex 86.94088 39.1 32.20905
vertex 82.83213 1.000005 32.74998
vertex 86.94088 1.000005 32.20905
endloop
endfacet
facet normal -0.1305252 0 0.991445
outer loop
vertex 82.83213 39.1 32.74998
vertex 78.72338 39.1 32.20906
vertex 78.72338 1.000005 32.20906
endloop
endfacet
facet normal -0.1305252 0 0.991445
outer loop
vertex 82.83213 39.1 32.74998
vertex 78.72338 1.000005 32.20906
vertex 82.83213 1.000005 32.74998
endloop
endfacet
facet normal -0.3826824 0 0.92388
outer loop
vertex 78.72338 39.1 32.20906
vertex 74.89463 39.1 30.62314
vertex 74.89463 1.000005 30.62314
endloop
endfacet
facet normal -0.3826824 0 0.92388
outer loop
vertex 78.72338 39.1 32.20906
vertex 74.89463 1.000005 30.62314
vertex 78.72338 1.000005 32.20906
endloop
endfacet
facet normal -0.6087604 0 0.7933541
outer loop
vertex 74.89463 39.1 30.62314
vertex 71.60681 39.1 28.10032
vertex 71.60681 1.000005 28.10032
endloop
endfacet
facet normal -0.6087604 0 0.7933541
outer loop
vertex 74.89463 39.1 30.62314
vertex 71.60681 1.000005 28.10032
vertex 74.89463 1.000005 30.62314
endloop
endfacet
facet normal -2.289387e-7 -1 1.756713e-7
outer loop
vertex 71.60681 1.000005 28.10032
vertex 69.08398 1.000005 24.8125
vertex 82.83211 1 16.87499
endloop
endfacet
facet normal -2.666049e-7 -1 1.104318e-7
outer loop
vertex 69.08398 1.000005 24.8125
vertex 67.49805 1.000005 20.98376
vertex 82.83211 1 16.87499
endloop
endfacet
facet normal -2.861024e-7 -1 3.766651e-8
outer loop
vertex 67.49805 1.000005 20.98376
vertex 66.95712 1.000005 16.87501
vertex 82.83211 1 16.87499
endloop
endfacet
facet normal -2.861025e-7 -1 -3.766575e-8
outer loop
vertex 66.95712 1.000005 16.87501
vertex 67.49804 1.000005 12.76626
vertex 82.83211 1 16.87499
endloop
endfacet
facet normal -2.666052e-7 -1 -1.104310e-7
outer loop
vertex 67.49804 1.000005 12.76626
vertex 69.08395 1.000005 8.937515
vertex 82.83211 1 16.87499
endloop
endfacet
facet normal -2.289392e-7 -1 -1.756707e-7
outer loop
vertex 69.08395 1.000005 8.937515
vertex 71.60678 1.000005 5.649692
vertex 82.83211 1 16.87499
endloop
endfacet
facet normal -1.756713e-7 -1 -2.289387e-7
outer loop
vertex 71.60678 1.000005 5.649692
vertex 74.8946 1.000005 3.126856
vertex 82.83211 1 16.87499
endloop
endfacet
facet normal -1.104318e-7 -1 -2.666049e-7
outer loop
vertex 74.8946 1.000005 3.126856
vertex 78.72334 1.000005 1.540932
vertex 82.83211 1 16.87499
endloop
endfacet
facet normal -3.766647e-8 -1 -2.861024e-7
outer loop
vertex 78.72334 1.000005 1.540932
vertex 82.83209 1.000005 1
vertex 82.83211 1 16.87499
endloop
endfacet
facet normal 3.766570e-8 -1 -2.861025e-7
outer loop
vertex 82.83209 1.000005 1
vertex 86.94084 1.000005 1.540921
vertex 82.83211 1 16.87499
endloop
endfacet
facet normal 1.104311e-7 -1 -2.666052e-7
outer loop
vertex 86.94084 1.000005 1.540921
vertex 90.76959 1.000005 3.126836
vertex 82.83211 1 16.87499
endloop
endfacet
facet normal 1.756707e-7 -1 -2.289392e-7
outer loop
vertex 90.76959 1.000005 3.126836
vertex 94.05741 1.000005 5.649663
vertex 82.83211 1 16.87499
endloop
endfacet
facet normal 2.289387e-7 -1 -1.756713e-7
outer loop
vertex 94.05741 1.000005 5.649663
vertex 96.58024 1.000005 8.937477
vertex 82.83211 1 16.87499
endloop
endfacet
facet normal 2.666049e-7 -1 -1.104318e-7
outer loop
vertex 96.58024 1.000005 8.937477
vertex 98.16617 1.000005 12.76622
vertex 82.83211 1 16.87499
endloop
endfacet
facet normal 2.861024e-7 -1 -3.766641e-8
outer loop
vertex 98.16617 1.000005 12.76622
vertex 98.7071 1.000005 16.87497
vertex 82.83211 1 16.87499
endloop
endfacet
facet normal 2.861025e-7 -1 3.766576e-8
outer loop
vertex 98.7071 1.000005 16.87497
vertex 98.16618 1.000005 20.98372
vertex 82.83211 1 16.87499
endloop
endfacet
facet normal 2.666052e-7 -1 1.104310e-7
outer loop
vertex 98.16618 1.000005 20.98372
vertex 96.58027 1.000005 24.81247
vertex 82.83211 1 16.87499
endloop
endfacet
facet normal 2.289392e-7 -1 1.756707e-7
outer loop
vertex 96.58027 1.000005 24.81247
vertex 94.05744 1.000005 28.10029
vertex 82.83211 1 16.87499
endloop
endfacet
facet normal 1.756714e-7 -1 2.289387e-7
outer loop
vertex 94.05744 1.000005 28.10029
vertex 90.76963 1.000005 30.62312
vertex 82.83211 1 16.87499
endloop
endfacet
facet normal 1.104318e-7 -1 2.666049e-7
outer loop
vertex 90.76963 1.000005 30.62312
vertex 86.94088 1.000005 32.20905
vertex 82.83211 1 16.87499
endloop
endfacet
facet normal 3.766645e-8 -1 2.861024e-7
outer loop
vertex 86.94088 1.000005 32.20905
vertex 82.83213 1.000005 32.74998
vertex 82.83211 1 16.87499
endloop
endfacet
facet normal -3.766582e-8 -1 2.861025e-7
outer loop
vertex 82.83213 1.000005 32.74998
vertex 78.72338 1.000005 32.20906
vertex 82.83211 1 16.87499
endloop
endfacet
facet normal -1.104311e-7 -1 2.666052e-7
outer loop
vertex 78.72338 1.000005 32.20906
vertex 74.89463 1.000005 30.62314
vertex 82.83211 1 16.87499
endloop
endfacet
facet normal -1.756707e-7 -1 2.289392e-7
outer loop
vertex 74.89463 1.000005 30.62314
vertex 71.60681 1.000005 28.10032
vertex 82.83211 1 16.87499
endloop
endfacet
endsolid model