# Blender v2.75 (sub 0) OBJ File: 'Red Fox.blend'
# www.blender.org
mtllib Red Fox.mtl
o Cylinder
v -0.012287 0.574287 1.539076
v -0.011645 0.500682 0.261516
v -0.325263 0.390364 0.270270
v -0.358212 0.456498 1.539535
v 0.333524 0.461858 1.529494
v 0.000365 0.605710 -0.628508
v -0.364376 0.318427 2.053243
v -0.011816 0.510833 2.053957
v -0.519215 0.101453 0.289757
v 0.325914 0.328601 2.046678
v 0.301897 0.390995 0.276543
v -0.292532 0.550028 -0.632545
v 0.293263 0.549979 -0.625276
v -0.572122 0.152999 1.523370
v -0.572830 -0.105012 2.037537
v -0.553059 -0.370689 1.976562
v -0.339655 -0.685356 1.883794
v -0.011773 -0.753726 1.876101
v 0.337812 -0.689755 1.876950
v 0.549751 -0.362029 1.982364
v 0.549199 -0.101046 2.040785
v 0.547423 0.161484 1.513517
v 0.003838 0.628402 -0.908376
v 0.303748 0.570980 -0.892816
v -0.550088 -0.259951 1.454336
v -0.337631 -0.540930 1.391744
v -0.011819 -0.633418 1.382112
v 0.334403 -0.537286 1.396247
v 0.546352 -0.221620 1.447713
v -0.520004 -0.480273 0.278991
v -0.473611 0.251563 -0.635606
v 0.495581 0.094332 0.311057
v 0.474175 0.252318 -0.620581
v -0.296378 0.571039 -0.900256
v 0.780710 0.691578 -0.901174
v -0.326013 -0.542136 0.641573
v -0.012715 -0.617796 0.778640
v 0.300551 -0.590920 0.647770
v 0.392565 -0.594413 0.248588
v -0.475434 -0.142918 -0.616163
v -0.772959 0.691721 -0.920435
v 0.005952 0.471692 -1.081036
v 0.154857 0.423606 -1.073464
v 0.488798 0.267588 -0.860688
v -0.294075 -0.235498 -0.623213
v 0.472623 -0.136539 -0.586228
v -0.482227 0.267672 -0.872731
v -0.143105 0.423636 -1.077158
v 0.354273 0.297735 -1.056002
v -0.000991 -0.328754 -0.620359
v 0.291658 -0.224841 -0.596473
v 0.487599 0.018725 -0.802312
v -0.483312 0.012967 -0.825718
v 0.006879 0.325997 -1.156865
v -0.108102 0.288928 -1.153874
v 0.121743 0.288904 -1.151024
v 0.275570 0.191809 -1.137554
v 0.315663 -0.165768 -1.001271
v -0.298551 -0.235600 -0.794074
v 0.301597 -0.229821 -0.777332
v -0.342403 0.297805 -1.064638
v -0.261839 0.191863 -1.144216
v 0.008321 0.086292 -1.236222
v 0.080254 0.063250 -1.231259
v 0.245787 -0.165733 -1.095335
v 0.218009 0.012140 -1.219837
v 0.001964 -0.341428 -0.785004
v 0.137568 -0.277922 -0.990118
v -0.305289 -0.165705 -1.008969
v -0.233209 -0.165684 -1.101273
v -0.063719 0.063265 -1.233044
v 0.108406 -0.252247 -1.086731
v 0.155908 -0.201161 -1.196280
v -0.128007 -0.277895 -0.993410
v 0.004713 -0.320754 -0.986660
v -0.096455 -0.252226 -1.089271
v -0.209883 0.012184 -1.225142
v 0.008774 -0.007029 -1.306206
v -0.039357 -0.022414 -1.304083
v 0.056834 -0.022424 -1.302890
v 0.143983 -0.062725 -1.294688
v 0.005923 -0.285287 -1.084065
v 0.058201 -0.234616 -1.190893
v 0.135976 -0.204844 -1.272863
v -0.146887 -0.201130 -1.200034
v 0.010255 -0.079524 -1.431820
v -0.027628 -0.091633 -1.430148
v 0.048082 -0.091641 -1.429210
v 0.007223 -0.250911 -1.188644
v 0.053581 -0.242849 -1.267166
v -0.043680 -0.234606 -1.192156
v -0.132765 -0.062697 -1.298119
v 0.011876 -0.128886 -1.562995
v -0.016046 -0.137811 -1.561764
v 0.125669 -0.123361 -1.422644
v 0.039758 -0.137817 -1.561072
v 0.125428 -0.217177 -1.403915
v 0.008171 -0.257364 -1.265163
v 0.047695 -0.248881 -1.399275
v -0.125124 -0.204817 -1.276100
v -0.111091 -0.123337 -1.425579
v 0.012443 -0.172224 -1.609091
v -0.002089 -0.176869 -1.608449
v 0.111212 -0.161198 -1.556054
v 0.026954 -0.176872 -1.608090
v -0.037172 -0.242840 -1.268291
v 0.009813 -0.260991 -1.397603
v -0.093339 -0.161178 -1.558590
v 0.111034 -0.238914 -1.542321
v 0.058414 -0.189040 -1.605549
v 0.039472 -0.262281 -1.539076
v -0.028015 -0.248874 -1.400213
v 0.011550 -0.271206 -1.537845
v -0.111332 -0.217153 -1.406850
v -0.093517 -0.238893 -1.544857
v -0.034855 -0.189031 -1.606706
v 0.058321 -0.229487 -1.598402
v -0.016331 -0.262275 -1.539768
v 0.012274 -0.246294 -1.596002
v 0.026806 -0.241649 -1.596643
v -0.034947 -0.229477 -1.599558
v -0.002237 -0.241646 -1.597003
v -0.365744 -0.420088 1.971418
v 0.326581 -0.372234 1.979419
v -0.388742 0.104448 2.662778
v -0.011822 0.180564 2.700572
v 0.366002 0.104448 2.662778
v -0.389167 -0.648948 2.341946
v 0.366082 -0.630198 2.349994
v -0.368590 -0.332575 3.208502
v -0.011272 -0.255601 3.250579
v 0.345944 -0.333167 3.208737
v -0.368957 -0.880978 2.942539
v 0.345577 -0.881570 2.942774
v -0.198146 -0.708357 3.519961
v -0.011710 -0.668194 3.541915
v 0.174674 -0.708666 3.520083
v -0.198338 -0.994495 3.381190
v 0.174483 -0.994804 3.381312
v -0.077081 -0.886398 3.628628
v -0.011910 -0.872358 3.636303
v 0.053243 -0.886506 3.628670
v -0.077148 -0.986421 3.580119
v 0.053176 -0.986529 3.580161
v -0.011983 -0.949823 3.664337
v -0.019245 -0.415755 1.971978
v -0.011370 -0.604739 2.360786
v -0.011690 -0.881274 2.942657
v -0.011928 -0.994649 3.381251
v -0.011986 -0.986475 3.580140
v -0.483276 -0.588866 0.155237
v -0.252989 -0.620621 0.122154
v 0.190090 -0.636465 0.173712
v -0.010923 -0.575259 0.151583
v -0.010139 -0.503700 0.002581
v -0.475589 -0.463913 -0.060641
v -0.250228 -0.514018 -0.096456
v 0.187329 -0.491326 -0.041080
v 0.423487 -0.445822 0.010859
v -0.480890 -0.833600 -0.111647
v -0.485681 -0.912468 0.054177
v -0.283140 -0.944793 0.039831
v -0.288870 -0.923827 -0.147280
v -0.426800 -1.554636 -0.047619
v -0.420109 -1.440021 0.052224
v -0.263090 -1.443686 0.037251
v -0.270662 -1.564658 -0.054813
v -0.424559 -1.609918 0.027031
v -0.422888 -1.519086 0.066644
v -0.265954 -1.522404 0.050748
v -0.268478 -1.620056 0.019282
v -0.294427 -1.680334 -0.071684
v -0.413190 -1.673147 -0.067608
v -0.292332 -1.712850 -0.009184
v -0.411095 -1.705663 -0.005107
v -0.312728 -1.721951 -0.068398
v -0.392157 -1.717144 -0.065672
v -0.311327 -1.743698 -0.026598
v -0.390756 -1.738891 -0.023872
v 0.427826 -0.817228 -0.104921
v 0.436143 -0.938964 0.046685
v 0.230118 -0.971503 0.026765
v 0.226697 -0.888627 -0.153876
v 0.361551 -1.480873 -0.295770
v 0.361758 -1.431538 -0.132705
v 0.196420 -1.431356 -0.139339
v 0.197664 -1.493074 -0.297563
v 0.364696 -1.566881 -0.249945
v 0.364819 -1.519626 -0.150651
v 0.199480 -1.519361 -0.158062
v 0.200811 -1.578973 -0.251339
v 0.222000 -1.589122 -0.366604
v 0.346550 -1.579984 -0.365593
v 0.224411 -1.653436 -0.330201
v 0.348960 -1.644297 -0.329190
v 0.241624 -1.626812 -0.388533
v 0.324923 -1.620700 -0.387856
v 0.243236 -1.669825 -0.364187
v 0.326535 -1.663713 -0.363510
v 0.521834 -0.673909 1.803373
v 0.365761 -0.723344 1.767063
v 0.508766 -0.505728 1.409415
v 0.357141 -0.575724 1.367136
v 0.467917 -0.945915 1.374269
v 0.486228 -1.006054 1.563417
v 0.323559 -1.053592 1.569033
v 0.307976 -1.025527 1.348000
v 0.420484 -1.382602 1.736869
v 0.429341 -1.245100 1.789453
v 0.279392 -1.242700 1.794601
v 0.271972 -1.388150 1.743580
v 0.416248 -1.536674 1.745596
v 0.430738 -1.344842 1.812255
v 0.280829 -1.341476 1.815003
v 0.267741 -1.541805 1.752251
v 0.281611 -1.594959 1.647016
v 0.417675 -1.592271 1.640382
v 0.282495 -1.668405 1.680367
v 0.418559 -1.665717 1.673733
v 0.299177 -1.634866 1.618374
v 0.390176 -1.633068 1.613937
v 0.299768 -1.683987 1.640679
v 0.390768 -1.682189 1.636242
v -0.523941 -0.669092 1.809193
v -0.366992 -0.721311 1.781252
v -0.512020 -0.511971 1.400749
v -0.360648 -0.578445 1.368470
v -0.472071 -0.943674 1.395893
v -0.483044 -1.036001 1.592825
v -0.320959 -1.085846 1.571257
v -0.315114 -1.008322 1.365013
v -0.413751 -1.465646 1.628679
v -0.417597 -1.341037 1.707604
v -0.267375 -1.340698 1.706070
v -0.265081 -1.470828 1.626031
v -0.407867 -1.620748 1.643348
v -0.419333 -1.435407 1.703161
v -0.269564 -1.431825 1.696324
v -0.259205 -1.624968 1.640770
v -0.279330 -1.682109 1.538681
v -0.415556 -1.680274 1.540583
v -0.277607 -1.754250 1.574738
v -0.413834 -1.752415 1.576640
v -0.298397 -1.723144 1.512718
v -0.389505 -1.721917 1.513990
v -0.297245 -1.771392 1.536833
v -0.388353 -1.770164 1.538105
vn -0.327000 0.943300 -0.056100
vn 0.319100 0.945900 -0.057900
vn -0.260600 0.956000 0.134600
vn -0.399700 0.899900 0.174100
vn -0.822600 0.566000 -0.054800
vn 0.393400 0.902600 0.174800
vn 0.256500 0.956100 0.141400
vn -0.853600 0.488000 0.182300
vn 0.072300 -0.174900 0.981900
vn -0.840900 0.538400 0.055200
vn 0.844200 0.499700 0.194100
vn 0.825300 0.561600 -0.059600
vn -0.186100 0.979400 0.078300
vn 0.184300 0.979400 0.082900
vn -0.998100 -0.056900 -0.023800
vn -0.237500 -0.938000 -0.252300
vn 0.221700 -0.938800 -0.263500
vn 1.000000 0.000100 -0.004800
vn -0.999300 -0.018800 -0.032300
vn 0.841000 0.535300 0.078800
vn -0.243500 0.967600 0.066400
vn -0.252100 -0.967600 -0.012300
vn 0.187200 -0.982100 0.022800
vn 0.993700 -0.088300 -0.068900
vn -0.997700 -0.028800 -0.061400
vn -0.672900 -0.736400 0.070100
vn -0.439500 0.257800 0.860400
vn 0.415100 0.266000 0.870000
vn 0.241900 0.967600 0.072500
vn -0.182700 0.700100 -0.690300
vn 0.199900 0.700000 -0.685600
vn 0.008000 -0.100500 -0.994900
vn 0.752900 -0.654300 0.070700
vn -0.359100 -0.910800 0.203600
vn -0.999200 0.008600 0.040200
vn -0.824300 -0.566100 -0.008500
vn 0.824200 -0.566100 0.014200
vn 0.016700 -0.100500 -0.994800
vn 0.619800 0.483700 -0.618000
vn 0.997800 0.005400 0.066800
vn -0.604200 0.483000 -0.633700
vn -0.169200 0.454200 -0.874700
vn 0.190900 0.454100 -0.870200
vn 0.332000 0.408100 -0.850400
vn 0.807300 -0.136300 -0.574200
vn -0.646400 -0.713200 -0.271100
vn 0.652700 -0.721200 -0.232100
vn -0.781000 -0.126600 -0.611600
vn -0.311400 0.407900 -0.858300
vn -0.130100 0.308200 -0.942400
vn 0.153700 0.308700 -0.938700
vn 0.795300 -0.136000 -0.590800
vn 0.236700 0.311200 -0.920400
vn 0.788600 -0.602500 -0.122800
vn -0.780800 -0.135800 -0.609800
vn -0.210100 0.315600 -0.925400
vn 0.917900 -0.121100 -0.377800
vn -0.221200 0.584400 -0.780700
vn 0.240300 0.583100 -0.776000
vn 0.289600 0.543300 -0.788000
vn -0.256000 0.550800 -0.794400
vn -0.286100 0.828500 -0.481500
vn 0.298000 0.828300 -0.474500
vn -0.357700 0.811200 -0.462600
vn -0.300000 0.891600 -0.339200
vn 0.391100 0.802100 -0.451300
vn 0.308500 0.891500 -0.331700
vn -0.320900 0.891900 -0.318700
vn -0.254000 0.703100 -0.664200
vn 0.350800 0.883700 -0.310000
vn 0.270600 0.703000 -0.657700
vn -0.252700 0.688900 -0.679400
vn 0.286000 0.685500 -0.669500
vn 0.009400 -0.290200 0.956900
vn -0.085300 -0.175100 0.980800
vn 0.336000 0.866300 0.369700
vn -0.037900 -0.911200 -0.410200
vn 0.019200 -0.861100 -0.508000
vn -0.338200 0.865900 0.368600
vn -0.999000 0.012800 -0.042900
vn 0.997300 0.019300 -0.071000
vn -0.999500 -0.012100 0.028100
vn -0.224800 0.760000 0.609900
vn 0.999500 -0.012800 0.027900
vn 0.225000 0.759900 0.609900
vn 0.071500 -0.874500 -0.479700
vn 0.064900 -0.916300 -0.395200
vn -0.932600 -0.115700 -0.341800
vn -0.780200 -0.601700 -0.171200
vn 0.064400 -0.274800 0.959300
vn -0.122800 0.135400 -0.983200
vn 0.333500 -0.860400 -0.385400
vn -0.337800 -0.829000 -0.445600
vn -0.995300 -0.094400 0.019800
vn -0.999600 0.016400 -0.023900
vn 0.995600 -0.087000 -0.034600
vn 0.999100 -0.027100 -0.033700
vn -0.155400 -0.120900 -0.980400
vn 0.997900 0.028900 -0.057900
vn 0.081500 0.002400 0.996700
vn 0.055400 -0.353400 0.933800
vn -0.999400 0.022100 0.027300
vn 0.970200 -0.188600 -0.151800
vn 0.100200 0.169900 0.980400
vn 0.881200 -0.406600 -0.241100
vn 0.021600 -0.307000 0.951500
vn -0.030700 0.156700 -0.987200
vn -0.992500 -0.115100 -0.042300
vn -0.069400 -0.885900 -0.458600
vn -0.038000 -0.062000 -0.997400
vn -0.881700 -0.430000 -0.194200
vn 0.000100 -0.491700 0.870800
vn 0.184900 -0.981400 0.051200
vn 0.993200 -0.104500 -0.051000
vn -0.994800 -0.094100 -0.038700
vn -0.999400 -0.034600 0.006500
vn 0.077200 0.248900 -0.965400
vn -0.998400 0.056000 0.009900
vn -0.037900 -0.337000 0.940800
vn 0.018400 -0.874200 0.485200
vn 0.999300 0.033400 -0.013600
vn -0.977300 -0.128700 -0.168300
vn -0.041800 -0.205100 0.977900
vn -0.893300 -0.246300 -0.376000
vn 0.047200 -0.719200 0.693200
vn -0.034900 0.578300 -0.815100
vn 0.987700 -0.045500 -0.149800
vn 0.043100 -0.490900 -0.870100
vn -0.029000 0.491400 -0.870500
vn 0.868900 -0.218800 -0.444000
vn 0.061200 -0.885400 0.460900
vn 0.995800 -0.091000 0.001800
vn 0.141000 0.289500 -0.946700
vn 0.996300 0.031400 0.079600
vn -0.118700 -0.465000 0.877300
vn 0.089800 -0.556600 0.825900
vn 0.196400 0.039900 -0.979700
vn 0.979900 -0.193300 -0.048300
vn 0.994300 -0.069700 -0.080800
vn -0.993000 0.097800 0.066400
vn -0.993900 0.023400 0.107900
vn 0.232300 -0.682000 -0.693500
vn -0.987000 0.159800 0.014500
vn -0.082500 0.732400 0.675900
vn 0.031800 -0.315200 0.948500
vn 0.992200 -0.026200 -0.121800
vn -0.992000 -0.008800 -0.126300
vn 0.029800 0.213000 0.976600
vn -0.926400 -0.164900 -0.338500
vn 0.054100 -0.486700 0.871900
vn -0.054600 0.419200 -0.906300
vn 0.999700 -0.011100 0.019400
vn -0.036200 -0.413600 -0.909800
vn -0.051300 0.567300 -0.821900
vn 0.827400 -0.223900 -0.515000
vn 0.036700 -0.924700 0.379000
vn -0.908100 -0.400000 -0.123900
vn 0.037200 0.202800 -0.978500
vn 0.994600 -0.091800 -0.048100
vn 0.340400 -0.603200 0.721400
vn -0.028000 -0.505900 0.862100
vn -0.205100 -0.010900 -0.978700
vn -0.986200 -0.161900 -0.034000
vn -0.994200 -0.081000 -0.071000
vn 0.993500 0.099700 0.055100
vn 0.998400 0.016100 0.054700
vn -0.199500 -0.456800 -0.866900
vn 0.989600 0.143900 0.001700
vn 0.133900 0.427100 0.894200
vn 0.029600 -0.289900 0.956600
vn -0.997600 -0.019300 -0.066900
vn 0.982100 -0.009300 -0.188400
vn 0.028800 -0.076800 0.996600
vn 0.904300 -0.173400 -0.390100
vn 0.004400 -0.453700 0.891100
vn -0.005400 0.381100 -0.924500
vn -0.996400 -0.014800 0.083100
vn -0.018500 -0.447400 -0.894200
vn -0.004600 0.536200 -0.844100
vn -0.856800 -0.246800 -0.452800
vn -0.006500 -0.909900 0.414800
vn 0.903700 -0.410500 -0.122000
vn -0.993600 -0.103000 -0.045500
vn -0.007400 0.256200 -0.966600
vn -0.347100 -0.590200 0.728800
vn -0.062600 -0.997700 0.027200
vn -0.064700 -0.997900 0.009100
vn -0.318400 -0.947200 0.037500
vn 0.338500 -0.939000 0.060600
vn 0.481400 -0.800100 -0.357900
vn -0.320500 -0.943200 -0.087700
vn -0.501300 -0.827300 -0.253400
vn 0.336100 -0.939300 -0.068600
vn -0.473400 -0.799400 -0.369900
vn -0.769500 -0.294000 -0.567000
vn 0.282500 -0.902500 -0.325100
vn 0.433000 -0.874200 -0.219900
vn 0.875900 -0.227100 -0.425700
vn -0.274500 -0.902400 -0.332000
vn -0.422800 -0.880700 -0.213800
vn 0.284000 -0.912700 -0.293900
vn 0.369500 -0.929200 0.013100
vn -0.276800 -0.912600 -0.300900
vn -0.862400 -0.231100 -0.450300
vn 0.994000 -0.051300 -0.096300
vn 0.306800 -0.948100 0.083800
vn 0.401000 -0.915300 0.038800
vn -0.350900 -0.936400 0.008200
vn -0.308900 -0.948000 0.076100
vn 0.305500 -0.951700 0.029800
vn -0.991200 -0.052100 -0.121400
vn 0.994700 -0.021500 -0.100900
vn 0.348900 -0.932900 0.089500
vn -0.306400 -0.951700 0.022300
vn 0.306600 -0.949000 0.072900
vn -0.379200 -0.924800 0.031500
vn -0.991900 -0.021300 -0.125500
vn 0.712600 -0.123700 -0.690600
vn -0.308500 -0.949000 0.065300
vn 0.266900 -0.887100 -0.376700
vn -0.329100 -0.940600 0.084100
vn -0.665800 -0.128400 -0.735000
vn 0.012200 -0.174000 -0.984700
vn 0.282400 -0.874700 -0.393800
vn -0.257700 -0.887000 -0.383200
vn -0.256300 -0.878900 -0.402300
vn 0.933100 -0.157500 0.323400
vn -0.000800 -0.999200 0.041100
vn 0.215700 0.563100 0.797800
vn -0.000700 -0.968200 -0.250300
vn -0.933500 -0.155900 0.322800
vn -0.215300 0.563400 0.797600
vn -0.822900 -0.247500 0.511400
vn -0.193600 0.411900 0.890500
vn 0.822200 -0.248800 0.511900
vn 0.193700 0.411500 0.890600
vn 0.675400 -0.322100 0.663300
vn 0.181000 0.334500 0.924800
vn -0.000900 -0.916900 0.399100
vn -0.676400 -0.321000 0.662900
vn -0.181000 0.334800 0.924700
vn 0.763300 -0.286200 -0.579200
vn 0.512100 -0.833800 -0.206300
vn -0.131800 -0.852000 -0.506800
vn 0.214600 -0.879700 -0.424300
vn -0.074900 -0.928400 -0.363900
vn 0.205800 -0.922700 -0.325900
usemtl Material.001
s off
f 2//1 3//1 4//1 1//1
f 1//2 5//2 11//2 2//2
f 2//3 6//3 12//3 3//3
f 1//4 4//4 7//4 8//4
f 3//5 9//5 14//5 4//5
f 5//6 1//6 8//6 10//6
f 6//7 2//7 11//7 13//7
f 4//8 14//8 15//8 7//8
f 7//9 15//9 16//9 17//9 123//9
f 3//10 12//10 31//10 9//10
f 22//11 5//11 10//11 21//11
f 5//12 22//12 32//12 11//12
f 6//13 23//13 34//13 12//13
f 13//14 24//14 23//14 6//14
f 14//15 25//15 16//15 15//15
f 26//16 27//16 18//16 17//16
f 27//17 28//17 19//17 18//17
f 29//18 22//18 21//18 20//18
f 14//19 9//19 30//19 25//19
f 13//20 11//20 32//20 33//20
f 24//21 13//21 35//21
f 26//22 36//22 37//22 27//22
f 28//23 27//23 37//23 38//23
f 29//24 39//24 32//24 22//24
f 30//25 9//25 31//25 40//25 156//25 151//25
f 30//26 36//26 26//26 25//26
f 31//27 12//27 41//27
f 13//28 33//28 35//28
f 12//29 34//29 41//29
f 23//30 42//30 48//30 34//30
f 24//31 43//31 42//31 23//31
f 44//32 24//32 35//32
f 38//33 39//33 29//33 28//33
f 30//34 151//34 152//34 36//34
f 31//35 47//35 53//35 40//35
f 47//36 31//36 41//36
f 33//37 44//37 35//37
f 34//38 47//38 41//38
f 43//39 24//39 44//39 49//39
f 46//40 52//40 44//40 33//40
f 34//41 48//41 61//41 47//41
f 48//42 42//42 54//42 55//42
f 42//43 43//43 56//43 54//43
f 43//44 49//44 57//44 56//44
f 49//45 44//45 52//45 58//45
f 40//46 53//46 59//46 45//46
f 51//47 60//47 52//47 46//47
f 47//48 61//48 69//48 53//48
f 61//49 48//49 55//49 62//49
f 54//50 63//50 71//50 55//50
f 56//51 64//51 63//51 54//51
f 49//52 58//52 65//52 57//52
f 57//53 66//53 64//53 56//53
f 52//54 60//54 58//54
f 69//55 61//55 62//55 70//55
f 55//56 71//56 77//56 62//56
f 57//57 65//57 66//57
f 71//58 63//58 78//58 79//58
f 63//59 64//59 80//59 78//59
f 66//60 81//60 80//60 64//60
f 71//61 79//61 92//61 77//61
f 79//62 78//62 86//62 87//62
f 78//63 80//63 88//63 86//63
f 79//64 87//64 101//64 92//64
f 87//65 86//65 93//65 94//65
f 81//66 95//66 88//66 80//66
f 86//67 88//67 96//67 93//67
f 87//68 94//68 108//68 101//68
f 94//69 93//69 102//69 103//69
f 95//70 104//70 96//70 88//70
f 93//71 96//71 105//71 102//71
f 94//72 103//72 116//72 108//72
f 105//73 96//73 104//73 110//73
f 124//74 146//74 123//74 17//74 18//74 19//74
f 10//75 124//75 19//75 20//75 21//75
f 10//76 8//76 126//76 127//76
f 147//77 129//77 134//77 148//77
f 146//78 124//78 129//78 147//78
f 8//79 7//79 125//79 126//79
f 7//80 123//80 128//80 125//80
f 124//81 10//81 127//81 129//81
f 125//82 128//82 133//82 130//82
f 126//83 125//83 130//83 131//83
f 129//84 127//84 132//84 134//84
f 127//85 126//85 131//85 132//85
f 123//86 146//86 147//86 128//86
f 128//87 147//87 148//87 133//87
f 62//88 77//88 70//88
f 53//89 69//89 59//89
f 152//90 151//90 161//90 162//90
f 156//91 157//91 163//91 160//91
f 158//92 51//92 46//92 159//92
f 156//93 40//93 45//93 157//93
f 161//94 160//94 164//94 165//94
f 151//95 156//95 160//95 161//95
f 157//96 152//96 162//96 163//96
f 167//97 166//97 170//97 171//97
f 160//98 163//98 167//98 164//98
f 163//99 162//99 166//99 167//99
f 162//100 161//100 165//100 166//100
f 169//101 168//101 171//101 170//101
f 165//102 164//102 168//102 169//102
f 167//103 171//103 174//103 172//103
f 166//104 165//104 169//104 170//104
f 172//105 174//105 178//105 176//105
f 171//106 168//106 175//106 174//106
f 164//107 167//107 172//107 173//107
f 168//108 164//108 173//108 175//108
f 177//109 176//109 178//109 179//109
f 173//110 172//110 176//110 177//110
f 175//111 173//111 177//111 179//111
f 174//112 175//112 179//112 178//112
f 38//113 153//113 39//113
f 181//114 185//114 184//114 180//114
f 158//115 183//115 182//115 153//115
f 187//116 191//116 190//116 186//116
f 180//117 184//117 187//117 183//117
f 183//118 187//118 186//118 182//118
f 182//119 186//119 185//119 181//119
f 189//120 190//120 191//120 188//120
f 185//121 189//121 188//121 184//121
f 187//122 192//122 194//122 191//122
f 186//123 190//123 189//123 185//123
f 192//124 196//124 198//124 194//124
f 191//125 194//125 195//125 188//125
f 184//126 193//126 192//126 187//126
f 188//127 195//127 193//127 184//127
f 197//128 199//128 198//128 196//128
f 193//129 197//129 196//129 192//129
f 195//130 199//130 197//130 193//130
f 194//131 198//131 199//131 195//131
f 32//132 39//132 159//132 46//132 33//132
f 159//133 180//133 183//133 158//133
f 39//134 181//134 180//134 159//134
f 153//135 182//135 181//135 39//135
f 201//136 206//136 205//136 200//136
f 202//137 204//137 207//137 203//137
f 205//138 209//138 208//138 204//138
f 200//139 205//139 204//139 202//139
f 203//140 207//140 206//140 201//140
f 211//141 215//141 214//141 210//141
f 204//142 208//142 211//142 207//142
f 207//143 211//143 210//143 206//143
f 206//144 210//144 209//144 205//144
f 213//145 214//145 215//145 212//145
f 209//146 213//146 212//146 208//146
f 211//147 216//147 218//147 215//147
f 210//148 214//148 213//148 209//148
f 216//149 220//149 222//149 218//149
f 215//150 218//150 219//150 212//150
f 208//151 217//151 216//151 211//151
f 212//152 219//152 217//152 208//152
f 221//153 223//153 222//153 220//153
f 217//154 221//154 220//154 216//154
f 219//155 223//155 221//155 217//155
f 218//156 222//156 223//156 219//156
f 201//157 19//157 28//157 203//157
f 203//158 28//158 29//158 202//158
f 202//159 29//159 20//159 200//159
f 200//160 20//160 19//160 201//160
f 225//161 224//161 229//161 230//161
f 226//162 227//162 231//162 228//162
f 229//163 228//163 232//163 233//163
f 224//164 226//164 228//164 229//164
f 227//165 225//165 230//165 231//165
f 235//166 234//166 238//166 239//166
f 228//167 231//167 235//167 232//167
f 231//168 230//168 234//168 235//168
f 230//169 229//169 233//169 234//169
f 237//170 236//170 239//170 238//170
f 233//171 232//171 236//171 237//171
f 235//172 239//172 242//172 240//172
f 234//173 233//173 237//173 238//173
f 240//174 242//174 246//174 244//174
f 239//175 236//175 243//175 242//175
f 232//176 235//176 240//176 241//176
f 236//177 232//177 241//177 243//177
f 245//178 244//178 246//178 247//178
f 241//179 240//179 244//179 245//179
f 243//180 241//180 245//180 247//180
f 242//181 243//181 247//181 246//181
f 225//182 227//182 26//182 17//182
f 226//183 224//183 16//183 25//183
f 227//184 226//184 25//184 26//184
f 224//185 225//185 17//185 16//185
usemtl Material.002
f 36//186 152//186 154//186 37//186
f 37//187 154//187 153//187 38//187
f 45//188 59//188 67//188 50//188
f 50//189 67//189 60//189 51//189
f 58//190 68//190 65//190
f 67//191 59//191 74//191 75//191
f 69//192 74//192 59//192
f 60//193 67//193 75//193 68//193
f 76//194 74//194 70//194
f 77//195 85//195 70//195
f 68//196 75//196 82//196 72//196
f 72//197 83//197 73//197 65//197
f 73//198 84//198 81//198 66//198
f 75//199 74//199 76//199 82//199
f 70//200 85//200 91//200 76//200
f 82//201 89//201 83//201 72//201
f 83//202 90//202 84//202 73//202
f 76//203 91//203 89//203 82//203
f 77//204 92//204 100//204 85//204
f 84//205 97//205 95//205 81//205
f 83//206 89//206 98//206 90//206
f 90//207 99//207 97//207 84//207
f 85//208 100//208 106//208 91//208
f 89//209 91//209 106//209 98//209
f 90//210 98//210 107//210 99//210
f 92//211 101//211 114//211 100//211
f 95//212 97//212 109//212 104//212
f 99//213 111//213 109//213 97//213
f 98//214 106//214 112//214 107//214
f 99//215 107//215 113//215 111//215
f 100//216 114//216 112//216 106//216
f 114//217 101//217 108//217 115//217
f 104//218 109//218 117//218 110//218
f 107//219 112//219 118//219 113//219
f 111//220 113//220 119//220 120//220
f 114//221 115//221 118//221 112//221
f 115//222 108//222 116//222 121//222
f 116//223 103//223 102//223 105//223 110//223 117//223 120//223 119//223 122//223 121//223
f 111//224 120//224 117//224 109//224
f 113//225 118//225 122//225 119//225
f 115//226 121//226 122//226 118//226
f 134//227 132//227 137//227 139//227
f 149//228 139//228 144//228 150//228
f 132//229 131//229 136//229 137//229
f 148//230 134//230 139//230 149//230
f 130//231 133//231 138//231 135//231
f 131//232 130//232 135//232 136//232
f 135//233 138//233 143//233 140//233
f 136//234 135//234 140//234 141//234
f 139//235 137//235 142//235 144//235
f 137//236 136//236 141//236 142//236
f 144//237 142//237 145//237
f 142//238 141//238 145//238
f 143//239 150//239 144//239 145//239
f 140//240 143//240 145//240
f 141//241 140//241 145//241
f 133//230 148//230 149//230 138//230
f 138//228 149//228 150//228 143//228
f 74//194 69//194 70//194
f 65//242 73//242 66//242
f 68//190 72//190 65//190
f 60//243 68//243 58//243
f 154//244 155//244 158//244 153//244
f 152//245 157//245 155//245 154//245
f 157//246 45//246 50//246 155//246
f 155//247 50//247 51//247 158//247
